G04 #@! TF.FileFunction,Soldermask,Top*
%FSLAX46Y46*%
G04 Gerber Fmt 4.6, Leading zero omitted, Abs format (unit mm)*
G04 Created by KiCad (PCBNEW 4.0.1-stable) date 2018/01/08 13:19:11*
%MOMM*%
G01*
G04 APERTURE LIST*
%ADD10C,0.100000*%
%ADD11C,0.110000*%
%ADD12C,5.100400*%
%ADD13R,1.797000X1.797000*%
%ADD14C,1.797000*%
%ADD15R,2.000000X1.400000*%
%ADD16C,2.600000*%
%ADD17C,1.924000*%
%ADD18R,1.543000X1.035000*%
%ADD19R,1.350000X1.700000*%
%ADD20C,2.400000*%
%ADD21R,1.035000X1.543000*%
%ADD22C,1.600000*%
%ADD23O,2.900000X2.100000*%
%ADD24R,0.781000X0.781000*%
%ADD25R,1.924000X1.924000*%
%ADD26C,1.650000*%
%ADD27C,4.400000*%
%ADD28C,2.300000*%
%ADD29C,2.800000*%
%ADD30C,1.950000*%
%ADD31C,2.100000*%
%ADD32C,1.400000*%
G04 APERTURE END LIST*
D10*
D11*
X102121428Y-83133333D02*
X102502380Y-83133333D01*
X102045237Y-83361905D02*
X102311904Y-82561905D01*
X102578571Y-83361905D01*
X102845237Y-83361905D02*
X102845237Y-82828571D01*
X102845237Y-82980952D02*
X102883332Y-82904762D01*
X102921428Y-82866667D01*
X102997618Y-82828571D01*
X103073809Y-82828571D01*
X103226189Y-82828571D02*
X103530951Y-82828571D01*
X103340475Y-82561905D02*
X103340475Y-83247619D01*
X103378570Y-83323810D01*
X103454761Y-83361905D01*
X103530951Y-83361905D01*
X103721428Y-82828571D02*
X103873809Y-83361905D01*
X104026190Y-82980952D01*
X104178571Y-83361905D01*
X104330952Y-82828571D01*
X104749999Y-83361905D02*
X104673808Y-83323810D01*
X104635713Y-83285714D01*
X104597618Y-83209524D01*
X104597618Y-82980952D01*
X104635713Y-82904762D01*
X104673808Y-82866667D01*
X104749999Y-82828571D01*
X104864285Y-82828571D01*
X104940475Y-82866667D01*
X104978570Y-82904762D01*
X105016666Y-82980952D01*
X105016666Y-83209524D01*
X104978570Y-83285714D01*
X104940475Y-83323810D01*
X104864285Y-83361905D01*
X104749999Y-83361905D01*
X105359523Y-83361905D02*
X105359523Y-82828571D01*
X105359523Y-82980952D02*
X105397618Y-82904762D01*
X105435714Y-82866667D01*
X105511904Y-82828571D01*
X105588095Y-82828571D01*
X105854761Y-83361905D02*
X105854761Y-82561905D01*
X105930952Y-83057143D02*
X106159523Y-83361905D01*
X106159523Y-82828571D02*
X105854761Y-83133333D01*
X107111904Y-83361905D02*
X107111904Y-82561905D01*
X107111904Y-82866667D02*
X107188095Y-82828571D01*
X107340476Y-82828571D01*
X107416666Y-82866667D01*
X107454761Y-82904762D01*
X107492857Y-82980952D01*
X107492857Y-83209524D01*
X107454761Y-83285714D01*
X107416666Y-83323810D01*
X107340476Y-83361905D01*
X107188095Y-83361905D01*
X107111904Y-83323810D01*
X107759524Y-82828571D02*
X107950000Y-83361905D01*
X108140476Y-82828571D02*
X107950000Y-83361905D01*
X107873809Y-83552381D01*
X107835714Y-83590476D01*
X107759524Y-83628571D01*
X109550000Y-82980952D02*
X109511905Y-82942857D01*
X109435715Y-82904762D01*
X109359524Y-82904762D01*
X109283334Y-82942857D01*
X109245238Y-82980952D01*
X109207143Y-83057143D01*
X109207143Y-83133333D01*
X109245238Y-83209524D01*
X109283334Y-83247619D01*
X109359524Y-83285714D01*
X109435715Y-83285714D01*
X109511905Y-83247619D01*
X109550000Y-83209524D01*
X109550000Y-82904762D02*
X109550000Y-83209524D01*
X109588096Y-83247619D01*
X109626191Y-83247619D01*
X109702381Y-83209524D01*
X109740476Y-83133333D01*
X109740476Y-82942857D01*
X109664286Y-82828571D01*
X109550000Y-82752381D01*
X109397619Y-82714286D01*
X109245238Y-82752381D01*
X109130953Y-82828571D01*
X109054762Y-82942857D01*
X109016667Y-83095238D01*
X109054762Y-83247619D01*
X109130953Y-83361905D01*
X109245238Y-83438095D01*
X109397619Y-83476190D01*
X109550000Y-83438095D01*
X109664286Y-83361905D01*
X110007143Y-82828571D02*
X110197619Y-83361905D01*
X110388095Y-82828571D01*
X110807143Y-83361905D02*
X110730952Y-83323810D01*
X110692857Y-83285714D01*
X110654762Y-83209524D01*
X110654762Y-82980952D01*
X110692857Y-82904762D01*
X110730952Y-82866667D01*
X110807143Y-82828571D01*
X110921429Y-82828571D01*
X110997619Y-82866667D01*
X111035714Y-82904762D01*
X111073810Y-82980952D01*
X111073810Y-83209524D01*
X111035714Y-83285714D01*
X110997619Y-83323810D01*
X110921429Y-83361905D01*
X110807143Y-83361905D01*
X111416667Y-83361905D02*
X111416667Y-82828571D01*
X111416667Y-82561905D02*
X111378572Y-82600000D01*
X111416667Y-82638095D01*
X111454762Y-82600000D01*
X111416667Y-82561905D01*
X111416667Y-82638095D01*
X112140476Y-83361905D02*
X112140476Y-82561905D01*
X112140476Y-83323810D02*
X112064286Y-83361905D01*
X111911905Y-83361905D01*
X111835714Y-83323810D01*
X111797619Y-83285714D01*
X111759524Y-83209524D01*
X111759524Y-82980952D01*
X111797619Y-82904762D01*
X111835714Y-82866667D01*
X111911905Y-82828571D01*
X112064286Y-82828571D01*
X112140476Y-82866667D01*
X112330953Y-83438095D02*
X112940477Y-83438095D01*
X113130953Y-83361905D02*
X113130953Y-82561905D01*
X113207144Y-83057143D02*
X113435715Y-83361905D01*
X113435715Y-82828571D02*
X113130953Y-83133333D01*
X114083334Y-83323810D02*
X114007144Y-83361905D01*
X113854763Y-83361905D01*
X113778572Y-83323810D01*
X113740477Y-83247619D01*
X113740477Y-82942857D01*
X113778572Y-82866667D01*
X113854763Y-82828571D01*
X114007144Y-82828571D01*
X114083334Y-82866667D01*
X114121429Y-82942857D01*
X114121429Y-83019048D01*
X113740477Y-83095238D01*
X114388096Y-82828571D02*
X114578572Y-83361905D01*
X114769048Y-82828571D02*
X114578572Y-83361905D01*
X114502381Y-83552381D01*
X114464286Y-83590476D01*
X114388096Y-83628571D01*
X115035715Y-83323810D02*
X115111905Y-83361905D01*
X115264286Y-83361905D01*
X115340477Y-83323810D01*
X115378572Y-83247619D01*
X115378572Y-83209524D01*
X115340477Y-83133333D01*
X115264286Y-83095238D01*
X115150001Y-83095238D01*
X115073810Y-83057143D01*
X115035715Y-82980952D01*
X115035715Y-82942857D01*
X115073810Y-82866667D01*
X115150001Y-82828571D01*
X115264286Y-82828571D01*
X115340477Y-82866667D01*
X102135713Y-82161905D02*
X102135713Y-81361905D01*
X102440475Y-81361905D01*
X102516666Y-81400000D01*
X102554761Y-81438095D01*
X102592856Y-81514286D01*
X102592856Y-81628571D01*
X102554761Y-81704762D01*
X102516666Y-81742857D01*
X102440475Y-81780952D01*
X102135713Y-81780952D01*
X103392856Y-82085714D02*
X103354761Y-82123810D01*
X103240475Y-82161905D01*
X103164285Y-82161905D01*
X103049999Y-82123810D01*
X102973808Y-82047619D01*
X102935713Y-81971429D01*
X102897618Y-81819048D01*
X102897618Y-81704762D01*
X102935713Y-81552381D01*
X102973808Y-81476190D01*
X103049999Y-81400000D01*
X103164285Y-81361905D01*
X103240475Y-81361905D01*
X103354761Y-81400000D01*
X103392856Y-81438095D01*
X104002380Y-81742857D02*
X104116666Y-81780952D01*
X104154761Y-81819048D01*
X104192856Y-81895238D01*
X104192856Y-82009524D01*
X104154761Y-82085714D01*
X104116666Y-82123810D01*
X104040475Y-82161905D01*
X103735713Y-82161905D01*
X103735713Y-81361905D01*
X104002380Y-81361905D01*
X104078570Y-81400000D01*
X104116666Y-81438095D01*
X104154761Y-81514286D01*
X104154761Y-81590476D01*
X104116666Y-81666667D01*
X104078570Y-81704762D01*
X104002380Y-81742857D01*
X103735713Y-81742857D01*
X105145237Y-82161905D02*
X105145237Y-81361905D01*
X105335713Y-81361905D01*
X105449999Y-81400000D01*
X105526190Y-81476190D01*
X105564285Y-81552381D01*
X105602380Y-81704762D01*
X105602380Y-81819048D01*
X105564285Y-81971429D01*
X105526190Y-82047619D01*
X105449999Y-82123810D01*
X105335713Y-82161905D01*
X105145237Y-82161905D01*
X106249999Y-82123810D02*
X106173809Y-82161905D01*
X106021428Y-82161905D01*
X105945237Y-82123810D01*
X105907142Y-82047619D01*
X105907142Y-81742857D01*
X105945237Y-81666667D01*
X106021428Y-81628571D01*
X106173809Y-81628571D01*
X106249999Y-81666667D01*
X106288094Y-81742857D01*
X106288094Y-81819048D01*
X105907142Y-81895238D01*
X106592856Y-82123810D02*
X106669046Y-82161905D01*
X106821427Y-82161905D01*
X106897618Y-82123810D01*
X106935713Y-82047619D01*
X106935713Y-82009524D01*
X106897618Y-81933333D01*
X106821427Y-81895238D01*
X106707142Y-81895238D01*
X106630951Y-81857143D01*
X106592856Y-81780952D01*
X106592856Y-81742857D01*
X106630951Y-81666667D01*
X106707142Y-81628571D01*
X106821427Y-81628571D01*
X106897618Y-81666667D01*
X107278570Y-82161905D02*
X107278570Y-81628571D01*
X107278570Y-81361905D02*
X107240475Y-81400000D01*
X107278570Y-81438095D01*
X107316665Y-81400000D01*
X107278570Y-81361905D01*
X107278570Y-81438095D01*
X108002379Y-81628571D02*
X108002379Y-82276190D01*
X107964284Y-82352381D01*
X107926189Y-82390476D01*
X107849998Y-82428571D01*
X107735713Y-82428571D01*
X107659522Y-82390476D01*
X108002379Y-82123810D02*
X107926189Y-82161905D01*
X107773808Y-82161905D01*
X107697617Y-82123810D01*
X107659522Y-82085714D01*
X107621427Y-82009524D01*
X107621427Y-81780952D01*
X107659522Y-81704762D01*
X107697617Y-81666667D01*
X107773808Y-81628571D01*
X107926189Y-81628571D01*
X108002379Y-81666667D01*
X108383332Y-81628571D02*
X108383332Y-82161905D01*
X108383332Y-81704762D02*
X108421427Y-81666667D01*
X108497618Y-81628571D01*
X108611904Y-81628571D01*
X108688094Y-81666667D01*
X108726189Y-81742857D01*
X108726189Y-82161905D01*
X109716666Y-82161905D02*
X109716666Y-81361905D01*
X109716666Y-81666667D02*
X109792857Y-81628571D01*
X109945238Y-81628571D01*
X110021428Y-81666667D01*
X110059523Y-81704762D01*
X110097619Y-81780952D01*
X110097619Y-82009524D01*
X110059523Y-82085714D01*
X110021428Y-82123810D01*
X109945238Y-82161905D01*
X109792857Y-82161905D01*
X109716666Y-82123810D01*
X110364286Y-81628571D02*
X110554762Y-82161905D01*
X110745238Y-81628571D02*
X110554762Y-82161905D01*
X110478571Y-82352381D01*
X110440476Y-82390476D01*
X110364286Y-82428571D01*
X112154762Y-81780952D02*
X112116667Y-81742857D01*
X112040477Y-81704762D01*
X111964286Y-81704762D01*
X111888096Y-81742857D01*
X111850000Y-81780952D01*
X111811905Y-81857143D01*
X111811905Y-81933333D01*
X111850000Y-82009524D01*
X111888096Y-82047619D01*
X111964286Y-82085714D01*
X112040477Y-82085714D01*
X112116667Y-82047619D01*
X112154762Y-82009524D01*
X112154762Y-81704762D02*
X112154762Y-82009524D01*
X112192858Y-82047619D01*
X112230953Y-82047619D01*
X112307143Y-82009524D01*
X112345238Y-81933333D01*
X112345238Y-81742857D01*
X112269048Y-81628571D01*
X112154762Y-81552381D01*
X112002381Y-81514286D01*
X111850000Y-81552381D01*
X111735715Y-81628571D01*
X111659524Y-81742857D01*
X111621429Y-81895238D01*
X111659524Y-82047619D01*
X111735715Y-82161905D01*
X111850000Y-82238095D01*
X112002381Y-82276190D01*
X112154762Y-82238095D01*
X112269048Y-82161905D01*
X112688095Y-81628571D02*
X112688095Y-82428571D01*
X112688095Y-81666667D02*
X112764286Y-81628571D01*
X112916667Y-81628571D01*
X112992857Y-81666667D01*
X113030952Y-81704762D01*
X113069048Y-81780952D01*
X113069048Y-82009524D01*
X113030952Y-82085714D01*
X112992857Y-82123810D01*
X112916667Y-82161905D01*
X112764286Y-82161905D01*
X112688095Y-82123810D01*
X113526191Y-82161905D02*
X113450000Y-82123810D01*
X113411905Y-82047619D01*
X113411905Y-81361905D01*
X114173810Y-81628571D02*
X114173810Y-82161905D01*
X113830953Y-81628571D02*
X113830953Y-82047619D01*
X113869048Y-82123810D01*
X113945239Y-82161905D01*
X114059525Y-82161905D01*
X114135715Y-82123810D01*
X114173810Y-82085714D01*
X114554763Y-82161905D02*
X114554763Y-81628571D01*
X114554763Y-81361905D02*
X114516668Y-81400000D01*
X114554763Y-81438095D01*
X114592858Y-81400000D01*
X114554763Y-81361905D01*
X114554763Y-81438095D01*
X114897620Y-82123810D02*
X114973810Y-82161905D01*
X115126191Y-82161905D01*
X115202382Y-82123810D01*
X115240477Y-82047619D01*
X115240477Y-82009524D01*
X115202382Y-81933333D01*
X115126191Y-81895238D01*
X115011906Y-81895238D01*
X114935715Y-81857143D01*
X114897620Y-81780952D01*
X114897620Y-81742857D01*
X114935715Y-81666667D01*
X115011906Y-81628571D01*
X115126191Y-81628571D01*
X115202382Y-81666667D01*
X115621429Y-82161905D02*
X115773810Y-82161905D01*
X115850001Y-82123810D01*
X115888096Y-82085714D01*
X115964287Y-81971429D01*
X116002382Y-81819048D01*
X116002382Y-81514286D01*
X115964287Y-81438095D01*
X115926191Y-81400000D01*
X115850001Y-81361905D01*
X115697620Y-81361905D01*
X115621429Y-81400000D01*
X115583334Y-81438095D01*
X115545239Y-81514286D01*
X115545239Y-81704762D01*
X115583334Y-81780952D01*
X115621429Y-81819048D01*
X115697620Y-81857143D01*
X115850001Y-81857143D01*
X115926191Y-81819048D01*
X115964287Y-81780952D01*
X116002382Y-81704762D01*
X102161903Y-80911905D02*
X102161903Y-80111905D01*
X102161903Y-80492857D02*
X102619046Y-80492857D01*
X102619046Y-80911905D02*
X102619046Y-80111905D01*
X103304760Y-80873810D02*
X103228570Y-80911905D01*
X103076189Y-80911905D01*
X102999998Y-80873810D01*
X102961903Y-80797619D01*
X102961903Y-80492857D01*
X102999998Y-80416667D01*
X103076189Y-80378571D01*
X103228570Y-80378571D01*
X103304760Y-80416667D01*
X103342855Y-80492857D01*
X103342855Y-80569048D01*
X102961903Y-80645238D01*
X103799998Y-80911905D02*
X103723807Y-80873810D01*
X103685712Y-80797619D01*
X103685712Y-80111905D01*
X104104760Y-80911905D02*
X104104760Y-80378571D01*
X104104760Y-80111905D02*
X104066665Y-80150000D01*
X104104760Y-80188095D01*
X104142855Y-80150000D01*
X104104760Y-80111905D01*
X104104760Y-80188095D01*
X104409522Y-80911905D02*
X104828569Y-80378571D01*
X104409522Y-80378571D02*
X104828569Y-80911905D01*
X105704760Y-80111905D02*
X105704760Y-80264286D01*
X106009522Y-80111905D02*
X106009522Y-80264286D01*
X106619046Y-80492857D02*
X106733332Y-80530952D01*
X106771427Y-80569048D01*
X106809522Y-80645238D01*
X106809522Y-80759524D01*
X106771427Y-80835714D01*
X106733332Y-80873810D01*
X106657141Y-80911905D01*
X106352379Y-80911905D01*
X106352379Y-80111905D01*
X106619046Y-80111905D01*
X106695236Y-80150000D01*
X106733332Y-80188095D01*
X106771427Y-80264286D01*
X106771427Y-80340476D01*
X106733332Y-80416667D01*
X106695236Y-80454762D01*
X106619046Y-80492857D01*
X106352379Y-80492857D01*
X107457141Y-80873810D02*
X107380951Y-80911905D01*
X107228570Y-80911905D01*
X107152379Y-80873810D01*
X107114284Y-80797619D01*
X107114284Y-80492857D01*
X107152379Y-80416667D01*
X107228570Y-80378571D01*
X107380951Y-80378571D01*
X107457141Y-80416667D01*
X107495236Y-80492857D01*
X107495236Y-80569048D01*
X107114284Y-80645238D01*
X107723807Y-80378571D02*
X108028569Y-80378571D01*
X107838093Y-80111905D02*
X107838093Y-80797619D01*
X107876188Y-80873810D01*
X107952379Y-80911905D01*
X108028569Y-80911905D01*
X108638093Y-80911905D02*
X108638093Y-80492857D01*
X108599998Y-80416667D01*
X108523808Y-80378571D01*
X108371427Y-80378571D01*
X108295236Y-80416667D01*
X108638093Y-80873810D02*
X108561903Y-80911905D01*
X108371427Y-80911905D01*
X108295236Y-80873810D01*
X108257141Y-80797619D01*
X108257141Y-80721429D01*
X108295236Y-80645238D01*
X108371427Y-80607143D01*
X108561903Y-80607143D01*
X108638093Y-80569048D01*
X108980951Y-80111905D02*
X108980951Y-80264286D01*
X109285713Y-80111905D02*
X109285713Y-80264286D01*
X110238094Y-80911905D02*
X110238094Y-80111905D01*
X110695237Y-80911905D02*
X110352380Y-80454762D01*
X110695237Y-80111905D02*
X110238094Y-80569048D01*
X111342856Y-80873810D02*
X111266666Y-80911905D01*
X111114285Y-80911905D01*
X111038094Y-80873810D01*
X110999999Y-80797619D01*
X110999999Y-80492857D01*
X111038094Y-80416667D01*
X111114285Y-80378571D01*
X111266666Y-80378571D01*
X111342856Y-80416667D01*
X111380951Y-80492857D01*
X111380951Y-80569048D01*
X110999999Y-80645238D01*
X111647618Y-80378571D02*
X111838094Y-80911905D01*
X112028570Y-80378571D02*
X111838094Y-80911905D01*
X111761903Y-81102381D01*
X111723808Y-81140476D01*
X111647618Y-81178571D01*
X112333332Y-80911905D02*
X112333332Y-80111905D01*
X112333332Y-80416667D02*
X112409523Y-80378571D01*
X112561904Y-80378571D01*
X112638094Y-80416667D01*
X112676189Y-80454762D01*
X112714285Y-80530952D01*
X112714285Y-80759524D01*
X112676189Y-80835714D01*
X112638094Y-80873810D01*
X112561904Y-80911905D01*
X112409523Y-80911905D01*
X112333332Y-80873810D01*
X113171428Y-80911905D02*
X113095237Y-80873810D01*
X113057142Y-80835714D01*
X113019047Y-80759524D01*
X113019047Y-80530952D01*
X113057142Y-80454762D01*
X113095237Y-80416667D01*
X113171428Y-80378571D01*
X113285714Y-80378571D01*
X113361904Y-80416667D01*
X113399999Y-80454762D01*
X113438095Y-80530952D01*
X113438095Y-80759524D01*
X113399999Y-80835714D01*
X113361904Y-80873810D01*
X113285714Y-80911905D01*
X113171428Y-80911905D01*
X114123809Y-80911905D02*
X114123809Y-80492857D01*
X114085714Y-80416667D01*
X114009524Y-80378571D01*
X113857143Y-80378571D01*
X113780952Y-80416667D01*
X114123809Y-80873810D02*
X114047619Y-80911905D01*
X113857143Y-80911905D01*
X113780952Y-80873810D01*
X113742857Y-80797619D01*
X113742857Y-80721429D01*
X113780952Y-80645238D01*
X113857143Y-80607143D01*
X114047619Y-80607143D01*
X114123809Y-80569048D01*
X114504762Y-80911905D02*
X114504762Y-80378571D01*
X114504762Y-80530952D02*
X114542857Y-80454762D01*
X114580953Y-80416667D01*
X114657143Y-80378571D01*
X114733334Y-80378571D01*
X115342857Y-80911905D02*
X115342857Y-80111905D01*
X115342857Y-80873810D02*
X115266667Y-80911905D01*
X115114286Y-80911905D01*
X115038095Y-80873810D01*
X115000000Y-80835714D01*
X114961905Y-80759524D01*
X114961905Y-80530952D01*
X115000000Y-80454762D01*
X115038095Y-80416667D01*
X115114286Y-80378571D01*
X115266667Y-80378571D01*
X115342857Y-80416667D01*
X116333334Y-80911905D02*
X116333334Y-80111905D01*
X116638096Y-80111905D01*
X116714287Y-80150000D01*
X116752382Y-80188095D01*
X116790477Y-80264286D01*
X116790477Y-80378571D01*
X116752382Y-80454762D01*
X116714287Y-80492857D01*
X116638096Y-80530952D01*
X116333334Y-80530952D01*
X117590477Y-80835714D02*
X117552382Y-80873810D01*
X117438096Y-80911905D01*
X117361906Y-80911905D01*
X117247620Y-80873810D01*
X117171429Y-80797619D01*
X117133334Y-80721429D01*
X117095239Y-80569048D01*
X117095239Y-80454762D01*
X117133334Y-80302381D01*
X117171429Y-80226190D01*
X117247620Y-80150000D01*
X117361906Y-80111905D01*
X117438096Y-80111905D01*
X117552382Y-80150000D01*
X117590477Y-80188095D01*
X118200001Y-80492857D02*
X118314287Y-80530952D01*
X118352382Y-80569048D01*
X118390477Y-80645238D01*
X118390477Y-80759524D01*
X118352382Y-80835714D01*
X118314287Y-80873810D01*
X118238096Y-80911905D01*
X117933334Y-80911905D01*
X117933334Y-80111905D01*
X118200001Y-80111905D01*
X118276191Y-80150000D01*
X118314287Y-80188095D01*
X118352382Y-80264286D01*
X118352382Y-80340476D01*
X118314287Y-80416667D01*
X118276191Y-80454762D01*
X118200001Y-80492857D01*
X117933334Y-80492857D01*
X119266668Y-80378571D02*
X119457144Y-80911905D01*
X119647620Y-80378571D01*
X120371430Y-80911905D02*
X119914287Y-80911905D01*
X120142858Y-80911905D02*
X120142858Y-80111905D01*
X120066668Y-80226190D01*
X119990477Y-80302381D01*
X119914287Y-80340476D01*
X120714287Y-80835714D02*
X120752382Y-80873810D01*
X120714287Y-80911905D01*
X120676192Y-80873810D01*
X120714287Y-80835714D01*
X120714287Y-80911905D01*
X121247620Y-80111905D02*
X121323811Y-80111905D01*
X121400001Y-80150000D01*
X121438096Y-80188095D01*
X121476192Y-80264286D01*
X121514287Y-80416667D01*
X121514287Y-80607143D01*
X121476192Y-80759524D01*
X121438096Y-80835714D01*
X121400001Y-80873810D01*
X121323811Y-80911905D01*
X121247620Y-80911905D01*
X121171430Y-80873810D01*
X121133334Y-80835714D01*
X121095239Y-80759524D01*
X121057144Y-80607143D01*
X121057144Y-80416667D01*
X121095239Y-80264286D01*
X121133334Y-80188095D01*
X121171430Y-80150000D01*
X121247620Y-80111905D01*
X122276192Y-80911905D02*
X121819049Y-80911905D01*
X122047620Y-80911905D02*
X122047620Y-80111905D01*
X121971430Y-80226190D01*
X121895239Y-80302381D01*
X121819049Y-80340476D01*
D12*
X139500000Y-100500000D03*
X139500000Y-62500000D03*
X158500000Y-119500000D03*
X120500000Y-119500000D03*
D13*
X208650000Y-96070000D03*
D14*
X208650000Y-98610000D03*
X206110000Y-96070000D03*
X206110000Y-98610000D03*
X203570000Y-96070000D03*
X203570000Y-98610000D03*
D12*
X139500000Y-119500000D03*
X196500000Y-119500000D03*
D15*
X113400000Y-48875000D03*
X113400000Y-47125000D03*
X108600000Y-48875000D03*
X108600000Y-47125000D03*
X94400000Y-48875000D03*
X94400000Y-47125000D03*
X89600000Y-48875000D03*
X89600000Y-47125000D03*
D16*
X199000000Y-98000000D03*
X212750000Y-98000000D03*
D12*
X177500000Y-119500000D03*
X177500000Y-100500000D03*
X177500000Y-62500000D03*
D17*
X213730000Y-47810000D03*
X213730000Y-50350000D03*
X213730000Y-52890000D03*
X213730000Y-55430000D03*
X213730000Y-57970000D03*
X213730000Y-60510000D03*
X213730000Y-63050000D03*
X213730000Y-65590000D03*
X213730000Y-68130000D03*
X213730000Y-70670000D03*
X213730000Y-73210000D03*
X213730000Y-75750000D03*
X198490000Y-75750000D03*
X198490000Y-73210000D03*
X198490000Y-70670000D03*
X198490000Y-68130000D03*
X198490000Y-65590000D03*
X198490000Y-63050000D03*
X198490000Y-60510000D03*
X198490000Y-57970000D03*
X198490000Y-55430000D03*
X198490000Y-52890000D03*
X198490000Y-50350000D03*
X198490000Y-47810000D03*
D14*
X199760000Y-85910000D03*
X199760000Y-90990000D03*
X197220000Y-85910000D03*
X197220000Y-90990000D03*
D16*
X199000000Y-135750000D03*
X212750000Y-135750000D03*
D14*
X197220000Y-101150000D03*
X199760000Y-101150000D03*
X212460000Y-101150000D03*
X209920000Y-101150000D03*
X207380000Y-101150000D03*
X204840000Y-101150000D03*
X202300000Y-101150000D03*
D16*
X199000000Y-116750000D03*
X212750000Y-116750000D03*
X199000000Y-80500000D03*
D14*
X209285000Y-80830000D03*
X206745000Y-80830000D03*
X204205000Y-80830000D03*
X201665000Y-80830000D03*
D12*
X101500000Y-100500000D03*
X101500000Y-119500000D03*
D14*
X209920000Y-70670000D03*
X207380000Y-70670000D03*
X204840000Y-70670000D03*
X202300000Y-70670000D03*
X202300000Y-68130000D03*
X204840000Y-68130000D03*
X207380000Y-68130000D03*
X209920000Y-68130000D03*
X209920000Y-65590000D03*
X207380000Y-65590000D03*
X204840000Y-65590000D03*
X202300000Y-65590000D03*
X202300000Y-63050000D03*
X204840000Y-63050000D03*
X207380000Y-63050000D03*
X209920000Y-63050000D03*
X209920000Y-60510000D03*
X207380000Y-60510000D03*
X204840000Y-60510000D03*
X202300000Y-60510000D03*
X202300000Y-57970000D03*
X204840000Y-57970000D03*
X207380000Y-57970000D03*
X209920000Y-57970000D03*
X209920000Y-55430000D03*
X207380000Y-55430000D03*
X204840000Y-55430000D03*
X202300000Y-55430000D03*
X202300000Y-52890000D03*
X204840000Y-52890000D03*
X207380000Y-52890000D03*
X209920000Y-52890000D03*
X209920000Y-50350000D03*
X207380000Y-50350000D03*
X204840000Y-50350000D03*
X202300000Y-50350000D03*
X202300000Y-47810000D03*
X204840000Y-47810000D03*
X207380000Y-47810000D03*
X209920000Y-47810000D03*
D18*
X209285000Y-77154620D03*
X209285000Y-78155380D03*
X206745000Y-77154620D03*
X206745000Y-78155380D03*
X204205000Y-77154620D03*
X204205000Y-78155380D03*
X201665000Y-77154620D03*
X201665000Y-78155380D03*
D14*
X199760000Y-83370000D03*
X201665000Y-83370000D03*
D12*
X101500000Y-62500000D03*
D19*
X100000000Y-56275000D03*
D13*
X100000000Y-58310000D03*
D14*
X100000000Y-50690000D03*
D19*
X100000000Y-52725000D03*
X103000000Y-56275000D03*
D13*
X103000000Y-58310000D03*
D14*
X103000000Y-50690000D03*
D19*
X103000000Y-52725000D03*
X120500000Y-56275000D03*
D13*
X120500000Y-58310000D03*
D14*
X120500000Y-50690000D03*
D19*
X120500000Y-52725000D03*
X139500000Y-56175000D03*
D13*
X139500000Y-58210000D03*
D14*
X139500000Y-50590000D03*
D19*
X139500000Y-52625000D03*
X158500000Y-56275000D03*
D13*
X158500000Y-58310000D03*
D14*
X158500000Y-50690000D03*
D19*
X158500000Y-52725000D03*
X177500000Y-56175000D03*
D13*
X177500000Y-58210000D03*
D14*
X177500000Y-50590000D03*
D19*
X177500000Y-52625000D03*
X100000000Y-76275000D03*
D13*
X100000000Y-78310000D03*
D14*
X100000000Y-70690000D03*
D19*
X100000000Y-72725000D03*
X103000000Y-76275000D03*
D13*
X103000000Y-78310000D03*
D14*
X103000000Y-70690000D03*
D19*
X103000000Y-72725000D03*
X120500000Y-76275000D03*
D13*
X120500000Y-78310000D03*
D14*
X120500000Y-70690000D03*
D19*
X120500000Y-72725000D03*
X139500000Y-76275000D03*
D13*
X139500000Y-78310000D03*
D14*
X139500000Y-70690000D03*
D19*
X139500000Y-72725000D03*
X158500000Y-76275000D03*
D13*
X158500000Y-78310000D03*
D14*
X158500000Y-70690000D03*
D19*
X158500000Y-72725000D03*
X177500000Y-76275000D03*
D13*
X177500000Y-78310000D03*
D14*
X177500000Y-70690000D03*
D19*
X177500000Y-72725000D03*
X100000000Y-94775000D03*
D13*
X100000000Y-96810000D03*
D14*
X100000000Y-89190000D03*
D19*
X100000000Y-91225000D03*
X103000000Y-94775000D03*
D13*
X103000000Y-96810000D03*
D14*
X103000000Y-89190000D03*
D19*
X103000000Y-91225000D03*
X120500000Y-95275000D03*
D13*
X120500000Y-97310000D03*
D14*
X120500000Y-89690000D03*
D19*
X120500000Y-91725000D03*
X139500000Y-94775000D03*
D13*
X139500000Y-96810000D03*
D14*
X139500000Y-89190000D03*
D19*
X139500000Y-91225000D03*
X158500000Y-95275000D03*
D13*
X158500000Y-97310000D03*
D14*
X158500000Y-89690000D03*
D19*
X158500000Y-91725000D03*
X177500000Y-94775000D03*
D13*
X177500000Y-96810000D03*
D14*
X177500000Y-89190000D03*
D19*
X177500000Y-91225000D03*
X100000000Y-113275000D03*
D13*
X100000000Y-115310000D03*
D14*
X100000000Y-107690000D03*
D19*
X100000000Y-109725000D03*
X103000000Y-113275000D03*
D13*
X103000000Y-115310000D03*
D14*
X103000000Y-107690000D03*
D19*
X103000000Y-109725000D03*
X120500000Y-113275000D03*
D13*
X120500000Y-115310000D03*
D14*
X120500000Y-107690000D03*
D19*
X120500000Y-109725000D03*
X139500000Y-113275000D03*
D13*
X139500000Y-115310000D03*
D14*
X139500000Y-107690000D03*
D19*
X139500000Y-109725000D03*
X158500000Y-113275000D03*
D13*
X158500000Y-115310000D03*
D14*
X158500000Y-107690000D03*
D19*
X158500000Y-109725000D03*
X177500000Y-113275000D03*
D13*
X177500000Y-115310000D03*
D14*
X177500000Y-107690000D03*
D19*
X177500000Y-109725000D03*
X195000000Y-113275000D03*
D13*
X195000000Y-115310000D03*
D14*
X195000000Y-107690000D03*
D19*
X195000000Y-109725000D03*
X100000000Y-133275000D03*
D13*
X100000000Y-135310000D03*
D14*
X100000000Y-127690000D03*
D19*
X100000000Y-129725000D03*
X103000000Y-133275000D03*
D13*
X103000000Y-135310000D03*
D14*
X103000000Y-127690000D03*
D19*
X103000000Y-129725000D03*
X120500000Y-131775000D03*
D13*
X120500000Y-133810000D03*
D14*
X120500000Y-126190000D03*
D19*
X120500000Y-128225000D03*
X139500000Y-133275000D03*
D13*
X139500000Y-135310000D03*
D14*
X139500000Y-127690000D03*
D19*
X139500000Y-129725000D03*
X158500000Y-133275000D03*
D13*
X158500000Y-135310000D03*
D14*
X158500000Y-127690000D03*
D19*
X158500000Y-129725000D03*
X177500000Y-131550000D03*
D13*
X177500000Y-133585000D03*
D14*
X177500000Y-125965000D03*
D19*
X177500000Y-128000000D03*
X195000000Y-133275000D03*
D13*
X195000000Y-135310000D03*
D14*
X195000000Y-127690000D03*
D19*
X195000000Y-129725000D03*
D17*
X197220000Y-49080000D03*
X197220000Y-51620000D03*
X197220000Y-54160000D03*
X197220000Y-56700000D03*
X197220000Y-59240000D03*
X197220000Y-61780000D03*
X197220000Y-64320000D03*
X197220000Y-66860000D03*
X197220000Y-69400000D03*
X197220000Y-71940000D03*
X197220000Y-74480000D03*
X197220000Y-77020000D03*
X212460000Y-77020000D03*
X212460000Y-74480000D03*
X212460000Y-71940000D03*
X212460000Y-69400000D03*
X212460000Y-66860000D03*
X212460000Y-64320000D03*
X212460000Y-61780000D03*
X212460000Y-59240000D03*
X212460000Y-56700000D03*
X212460000Y-54160000D03*
X212460000Y-51620000D03*
X212460000Y-49080000D03*
D16*
X212750000Y-80500000D03*
D20*
X207150000Y-92400000D03*
X213650000Y-92400000D03*
D21*
X192399620Y-121100000D03*
X193400380Y-121100000D03*
X200700380Y-121100000D03*
X199699620Y-121100000D03*
D22*
X206500000Y-85430000D03*
X213500000Y-85430000D03*
D23*
X204700000Y-83330000D03*
X203200000Y-87530000D03*
X211700000Y-83330000D03*
X208700000Y-83330000D03*
D22*
X213500000Y-87180000D03*
X206500000Y-87180000D03*
D23*
X211700000Y-89280000D03*
X208700000Y-89280000D03*
X204700000Y-89280000D03*
X203200000Y-85080000D03*
D21*
X196899620Y-83700000D03*
X197900380Y-83700000D03*
D24*
X197400000Y-83700000D03*
D15*
X132400000Y-48875000D03*
X132400000Y-47125000D03*
X127600000Y-48875000D03*
X127600000Y-47125000D03*
X151400000Y-48875000D03*
X151400000Y-47125000D03*
X146600000Y-48875000D03*
X146600000Y-47125000D03*
X170400000Y-48875000D03*
X170400000Y-47125000D03*
X165600000Y-48875000D03*
X165600000Y-47125000D03*
X89600000Y-66125000D03*
X89600000Y-67875000D03*
X94400000Y-66125000D03*
X94400000Y-67875000D03*
X108600000Y-66125000D03*
X108600000Y-67875000D03*
X113400000Y-66125000D03*
X113400000Y-67875000D03*
X127600000Y-66125000D03*
X127600000Y-67875000D03*
X132400000Y-66125000D03*
X132400000Y-67875000D03*
X146600000Y-66125000D03*
X146600000Y-67875000D03*
X151400000Y-66125000D03*
X151400000Y-67875000D03*
X165600000Y-66125000D03*
X165600000Y-67875000D03*
X170400000Y-66125000D03*
X170400000Y-67875000D03*
X184600000Y-66125000D03*
X184600000Y-67875000D03*
X189400000Y-66125000D03*
X189400000Y-67875000D03*
X94400000Y-86875000D03*
X94400000Y-85125000D03*
X89600000Y-86875000D03*
X89600000Y-85125000D03*
X113400000Y-86875000D03*
X113400000Y-85125000D03*
X108600000Y-86875000D03*
X108600000Y-85125000D03*
X132400000Y-86875000D03*
X132400000Y-85125000D03*
X127600000Y-86875000D03*
X127600000Y-85125000D03*
X151400000Y-86875000D03*
X151400000Y-85125000D03*
X146600000Y-86875000D03*
X146600000Y-85125000D03*
X170400000Y-86875000D03*
X170400000Y-85125000D03*
X165600000Y-86875000D03*
X165600000Y-85125000D03*
X189400000Y-86875000D03*
X189400000Y-85125000D03*
X184600000Y-86875000D03*
X184600000Y-85125000D03*
X89600000Y-104125000D03*
X89600000Y-105875000D03*
X94400000Y-104125000D03*
X94400000Y-105875000D03*
X108600000Y-104125000D03*
X108600000Y-105875000D03*
X113400000Y-104125000D03*
X113400000Y-105875000D03*
X127600000Y-104125000D03*
X127600000Y-105875000D03*
X132400000Y-104125000D03*
X132400000Y-105875000D03*
X146600000Y-104125000D03*
X146600000Y-105875000D03*
X151400000Y-104125000D03*
X151400000Y-105875000D03*
X165600000Y-104125000D03*
X165600000Y-105875000D03*
X170400000Y-104125000D03*
X170400000Y-105875000D03*
X184600000Y-104125000D03*
X184600000Y-105875000D03*
X189400000Y-104125000D03*
X189400000Y-105875000D03*
X203600000Y-104125000D03*
X203600000Y-105875000D03*
X208400000Y-104125000D03*
X208400000Y-105875000D03*
X94400000Y-124875000D03*
X94400000Y-123125000D03*
X89600000Y-124875000D03*
X89600000Y-123125000D03*
X113400000Y-124875000D03*
X113400000Y-123125000D03*
X108600000Y-124875000D03*
X108600000Y-123125000D03*
X132400000Y-124875000D03*
X132400000Y-123125000D03*
X127600000Y-124875000D03*
X127600000Y-123125000D03*
X151400000Y-124875000D03*
X151400000Y-123125000D03*
X146600000Y-124875000D03*
X146600000Y-123125000D03*
X170400000Y-124875000D03*
X170400000Y-123125000D03*
X165600000Y-124875000D03*
X165600000Y-123125000D03*
X189400000Y-124875000D03*
X189400000Y-123125000D03*
X184600000Y-124875000D03*
X184600000Y-123125000D03*
X208400000Y-124875000D03*
X208400000Y-123125000D03*
X203600000Y-124875000D03*
X203600000Y-123125000D03*
X189400000Y-48875000D03*
X189400000Y-47125000D03*
X184600000Y-48875000D03*
X184600000Y-47125000D03*
D25*
X195000000Y-86580000D03*
X195000000Y-84040000D03*
X195000000Y-81500000D03*
D26*
X125205324Y-76263871D02*
X124594676Y-75536129D01*
D27*
X130000000Y-72000000D03*
D28*
X135500000Y-72000000D03*
X124500000Y-72000000D03*
D26*
X135405324Y-75536129D02*
X134794676Y-76263871D01*
D16*
X130000000Y-77900000D03*
D29*
X127460000Y-77080000D03*
D30*
X134211742Y-74061222D02*
X133408258Y-75018778D01*
D29*
X132540000Y-77080000D03*
D30*
X126591742Y-75018778D02*
X125788258Y-74061222D01*
D29*
X127460000Y-76500000D03*
X127460000Y-76000000D03*
X132540000Y-76000000D03*
X132540000Y-76500000D03*
D31*
X124920000Y-72000000D03*
X135080000Y-72000000D03*
D32*
X124780000Y-67800000D03*
X135220000Y-67800000D03*
D26*
X144205324Y-57263871D02*
X143594676Y-56536129D01*
D27*
X149000000Y-53000000D03*
D28*
X154500000Y-53000000D03*
X143500000Y-53000000D03*
D26*
X154405324Y-56536129D02*
X153794676Y-57263871D01*
D16*
X149000000Y-58900000D03*
D29*
X146460000Y-58080000D03*
D30*
X153211742Y-55061222D02*
X152408258Y-56018778D01*
D29*
X151540000Y-58080000D03*
D30*
X145591742Y-56018778D02*
X144788258Y-55061222D01*
D29*
X146460000Y-57500000D03*
X146460000Y-57000000D03*
X151540000Y-57000000D03*
X151540000Y-57500000D03*
D31*
X143920000Y-53000000D03*
X154080000Y-53000000D03*
D32*
X143780000Y-48800000D03*
X154220000Y-48800000D03*
D26*
X87205324Y-57263871D02*
X86594676Y-56536129D01*
D27*
X92000000Y-53000000D03*
D28*
X97500000Y-53000000D03*
X86500000Y-53000000D03*
D26*
X97405324Y-56536129D02*
X96794676Y-57263871D01*
D16*
X92000000Y-58900000D03*
D29*
X89460000Y-58080000D03*
D30*
X96211742Y-55061222D02*
X95408258Y-56018778D01*
D29*
X94540000Y-58080000D03*
D30*
X88591742Y-56018778D02*
X87788258Y-55061222D01*
D29*
X89460000Y-57500000D03*
X89460000Y-57000000D03*
X94540000Y-57000000D03*
X94540000Y-57500000D03*
D31*
X86920000Y-53000000D03*
X97080000Y-53000000D03*
D32*
X86780000Y-48800000D03*
X97220000Y-48800000D03*
D26*
X201205324Y-133263871D02*
X200594676Y-132536129D01*
D27*
X206000000Y-129000000D03*
D28*
X211500000Y-129000000D03*
X200500000Y-129000000D03*
D26*
X211405324Y-132536129D02*
X210794676Y-133263871D01*
D16*
X206000000Y-134900000D03*
D29*
X203460000Y-134080000D03*
D30*
X210211742Y-131061222D02*
X209408258Y-132018778D01*
D29*
X208540000Y-134080000D03*
D30*
X202591742Y-132018778D02*
X201788258Y-131061222D01*
D29*
X203460000Y-133500000D03*
X203460000Y-133000000D03*
X208540000Y-133000000D03*
X208540000Y-133500000D03*
D31*
X200920000Y-129000000D03*
X211080000Y-129000000D03*
D32*
X200780000Y-124800000D03*
X211220000Y-124800000D03*
D26*
X182205324Y-133263871D02*
X181594676Y-132536129D01*
D27*
X187000000Y-129000000D03*
D28*
X192500000Y-129000000D03*
X181500000Y-129000000D03*
D26*
X192405324Y-132536129D02*
X191794676Y-133263871D01*
D16*
X187000000Y-134900000D03*
D29*
X184460000Y-134080000D03*
D30*
X191211742Y-131061222D02*
X190408258Y-132018778D01*
D29*
X189540000Y-134080000D03*
D30*
X183591742Y-132018778D02*
X182788258Y-131061222D01*
D29*
X184460000Y-133500000D03*
X184460000Y-133000000D03*
X189540000Y-133000000D03*
X189540000Y-133500000D03*
D31*
X181920000Y-129000000D03*
X192080000Y-129000000D03*
D32*
X181780000Y-124800000D03*
X192220000Y-124800000D03*
D26*
X163205324Y-133263871D02*
X162594676Y-132536129D01*
D27*
X168000000Y-129000000D03*
D28*
X173500000Y-129000000D03*
X162500000Y-129000000D03*
D26*
X173405324Y-132536129D02*
X172794676Y-133263871D01*
D16*
X168000000Y-134900000D03*
D29*
X165460000Y-134080000D03*
D30*
X172211742Y-131061222D02*
X171408258Y-132018778D01*
D29*
X170540000Y-134080000D03*
D30*
X164591742Y-132018778D02*
X163788258Y-131061222D01*
D29*
X165460000Y-133500000D03*
X165460000Y-133000000D03*
X170540000Y-133000000D03*
X170540000Y-133500000D03*
D31*
X162920000Y-129000000D03*
X173080000Y-129000000D03*
D32*
X162780000Y-124800000D03*
X173220000Y-124800000D03*
D26*
X144205324Y-133263871D02*
X143594676Y-132536129D01*
D27*
X149000000Y-129000000D03*
D28*
X154500000Y-129000000D03*
X143500000Y-129000000D03*
D26*
X154405324Y-132536129D02*
X153794676Y-133263871D01*
D16*
X149000000Y-134900000D03*
D29*
X146460000Y-134080000D03*
D30*
X153211742Y-131061222D02*
X152408258Y-132018778D01*
D29*
X151540000Y-134080000D03*
D30*
X145591742Y-132018778D02*
X144788258Y-131061222D01*
D29*
X146460000Y-133500000D03*
X146460000Y-133000000D03*
X151540000Y-133000000D03*
X151540000Y-133500000D03*
D31*
X143920000Y-129000000D03*
X154080000Y-129000000D03*
D32*
X143780000Y-124800000D03*
X154220000Y-124800000D03*
D26*
X125205324Y-133263871D02*
X124594676Y-132536129D01*
D27*
X130000000Y-129000000D03*
D28*
X135500000Y-129000000D03*
X124500000Y-129000000D03*
D26*
X135405324Y-132536129D02*
X134794676Y-133263871D01*
D16*
X130000000Y-134900000D03*
D29*
X127460000Y-134080000D03*
D30*
X134211742Y-131061222D02*
X133408258Y-132018778D01*
D29*
X132540000Y-134080000D03*
D30*
X126591742Y-132018778D02*
X125788258Y-131061222D01*
D29*
X127460000Y-133500000D03*
X127460000Y-133000000D03*
X132540000Y-133000000D03*
X132540000Y-133500000D03*
D31*
X124920000Y-129000000D03*
X135080000Y-129000000D03*
D32*
X124780000Y-124800000D03*
X135220000Y-124800000D03*
D26*
X106205324Y-133263871D02*
X105594676Y-132536129D01*
D27*
X111000000Y-129000000D03*
D28*
X116500000Y-129000000D03*
X105500000Y-129000000D03*
D26*
X116405324Y-132536129D02*
X115794676Y-133263871D01*
D16*
X111000000Y-134900000D03*
D29*
X108460000Y-134080000D03*
D30*
X115211742Y-131061222D02*
X114408258Y-132018778D01*
D29*
X113540000Y-134080000D03*
D30*
X107591742Y-132018778D02*
X106788258Y-131061222D01*
D29*
X108460000Y-133500000D03*
X108460000Y-133000000D03*
X113540000Y-133000000D03*
X113540000Y-133500000D03*
D31*
X105920000Y-129000000D03*
X116080000Y-129000000D03*
D32*
X105780000Y-124800000D03*
X116220000Y-124800000D03*
D26*
X87205324Y-133263871D02*
X86594676Y-132536129D01*
D27*
X92000000Y-129000000D03*
D28*
X97500000Y-129000000D03*
X86500000Y-129000000D03*
D26*
X97405324Y-132536129D02*
X96794676Y-133263871D01*
D16*
X92000000Y-134900000D03*
D29*
X89460000Y-134080000D03*
D30*
X96211742Y-131061222D02*
X95408258Y-132018778D01*
D29*
X94540000Y-134080000D03*
D30*
X88591742Y-132018778D02*
X87788258Y-131061222D01*
D29*
X89460000Y-133500000D03*
X89460000Y-133000000D03*
X94540000Y-133000000D03*
X94540000Y-133500000D03*
D31*
X86920000Y-129000000D03*
X97080000Y-129000000D03*
D32*
X86780000Y-124800000D03*
X97220000Y-124800000D03*
D26*
X201205324Y-114263871D02*
X200594676Y-113536129D01*
D27*
X206000000Y-110000000D03*
D28*
X211500000Y-110000000D03*
X200500000Y-110000000D03*
D26*
X211405324Y-113536129D02*
X210794676Y-114263871D01*
D16*
X206000000Y-115900000D03*
D29*
X203460000Y-115080000D03*
D30*
X210211742Y-112061222D02*
X209408258Y-113018778D01*
D29*
X208540000Y-115080000D03*
D30*
X202591742Y-113018778D02*
X201788258Y-112061222D01*
D29*
X203460000Y-114500000D03*
X203460000Y-114000000D03*
X208540000Y-114000000D03*
X208540000Y-114500000D03*
D31*
X200920000Y-110000000D03*
X211080000Y-110000000D03*
D32*
X200780000Y-105800000D03*
X211220000Y-105800000D03*
D26*
X182205324Y-114263871D02*
X181594676Y-113536129D01*
D27*
X187000000Y-110000000D03*
D28*
X192500000Y-110000000D03*
X181500000Y-110000000D03*
D26*
X192405324Y-113536129D02*
X191794676Y-114263871D01*
D16*
X187000000Y-115900000D03*
D29*
X184460000Y-115080000D03*
D30*
X191211742Y-112061222D02*
X190408258Y-113018778D01*
D29*
X189540000Y-115080000D03*
D30*
X183591742Y-113018778D02*
X182788258Y-112061222D01*
D29*
X184460000Y-114500000D03*
X184460000Y-114000000D03*
X189540000Y-114000000D03*
X189540000Y-114500000D03*
D31*
X181920000Y-110000000D03*
X192080000Y-110000000D03*
D32*
X181780000Y-105800000D03*
X192220000Y-105800000D03*
D26*
X163205324Y-114263871D02*
X162594676Y-113536129D01*
D27*
X168000000Y-110000000D03*
D28*
X173500000Y-110000000D03*
X162500000Y-110000000D03*
D26*
X173405324Y-113536129D02*
X172794676Y-114263871D01*
D16*
X168000000Y-115900000D03*
D29*
X165460000Y-115080000D03*
D30*
X172211742Y-112061222D02*
X171408258Y-113018778D01*
D29*
X170540000Y-115080000D03*
D30*
X164591742Y-113018778D02*
X163788258Y-112061222D01*
D29*
X165460000Y-114500000D03*
X165460000Y-114000000D03*
X170540000Y-114000000D03*
X170540000Y-114500000D03*
D31*
X162920000Y-110000000D03*
X173080000Y-110000000D03*
D32*
X162780000Y-105800000D03*
X173220000Y-105800000D03*
D26*
X144205324Y-114263871D02*
X143594676Y-113536129D01*
D27*
X149000000Y-110000000D03*
D28*
X154500000Y-110000000D03*
X143500000Y-110000000D03*
D26*
X154405324Y-113536129D02*
X153794676Y-114263871D01*
D16*
X149000000Y-115900000D03*
D29*
X146460000Y-115080000D03*
D30*
X153211742Y-112061222D02*
X152408258Y-113018778D01*
D29*
X151540000Y-115080000D03*
D30*
X145591742Y-113018778D02*
X144788258Y-112061222D01*
D29*
X146460000Y-114500000D03*
X146460000Y-114000000D03*
X151540000Y-114000000D03*
X151540000Y-114500000D03*
D31*
X143920000Y-110000000D03*
X154080000Y-110000000D03*
D32*
X143780000Y-105800000D03*
X154220000Y-105800000D03*
D26*
X125205324Y-114263871D02*
X124594676Y-113536129D01*
D27*
X130000000Y-110000000D03*
D28*
X135500000Y-110000000D03*
X124500000Y-110000000D03*
D26*
X135405324Y-113536129D02*
X134794676Y-114263871D01*
D16*
X130000000Y-115900000D03*
D29*
X127460000Y-115080000D03*
D30*
X134211742Y-112061222D02*
X133408258Y-113018778D01*
D29*
X132540000Y-115080000D03*
D30*
X126591742Y-113018778D02*
X125788258Y-112061222D01*
D29*
X127460000Y-114500000D03*
X127460000Y-114000000D03*
X132540000Y-114000000D03*
X132540000Y-114500000D03*
D31*
X124920000Y-110000000D03*
X135080000Y-110000000D03*
D32*
X124780000Y-105800000D03*
X135220000Y-105800000D03*
D26*
X106205324Y-114263871D02*
X105594676Y-113536129D01*
D27*
X111000000Y-110000000D03*
D28*
X116500000Y-110000000D03*
X105500000Y-110000000D03*
D26*
X116405324Y-113536129D02*
X115794676Y-114263871D01*
D16*
X111000000Y-115900000D03*
D29*
X108460000Y-115080000D03*
D30*
X115211742Y-112061222D02*
X114408258Y-113018778D01*
D29*
X113540000Y-115080000D03*
D30*
X107591742Y-113018778D02*
X106788258Y-112061222D01*
D29*
X108460000Y-114500000D03*
X108460000Y-114000000D03*
X113540000Y-114000000D03*
X113540000Y-114500000D03*
D31*
X105920000Y-110000000D03*
X116080000Y-110000000D03*
D32*
X105780000Y-105800000D03*
X116220000Y-105800000D03*
D26*
X87205324Y-114263871D02*
X86594676Y-113536129D01*
D27*
X92000000Y-110000000D03*
D28*
X97500000Y-110000000D03*
X86500000Y-110000000D03*
D26*
X97405324Y-113536129D02*
X96794676Y-114263871D01*
D16*
X92000000Y-115900000D03*
D29*
X89460000Y-115080000D03*
D30*
X96211742Y-112061222D02*
X95408258Y-113018778D01*
D29*
X94540000Y-115080000D03*
D30*
X88591742Y-113018778D02*
X87788258Y-112061222D01*
D29*
X89460000Y-114500000D03*
X89460000Y-114000000D03*
X94540000Y-114000000D03*
X94540000Y-114500000D03*
D31*
X86920000Y-110000000D03*
X97080000Y-110000000D03*
D32*
X86780000Y-105800000D03*
X97220000Y-105800000D03*
D26*
X182205324Y-95263871D02*
X181594676Y-94536129D01*
D27*
X187000000Y-91000000D03*
D28*
X192500000Y-91000000D03*
X181500000Y-91000000D03*
D26*
X192405324Y-94536129D02*
X191794676Y-95263871D01*
D16*
X187000000Y-96900000D03*
D29*
X184460000Y-96080000D03*
D30*
X191211742Y-93061222D02*
X190408258Y-94018778D01*
D29*
X189540000Y-96080000D03*
D30*
X183591742Y-94018778D02*
X182788258Y-93061222D01*
D29*
X184460000Y-95500000D03*
X184460000Y-95000000D03*
X189540000Y-95000000D03*
X189540000Y-95500000D03*
D31*
X181920000Y-91000000D03*
X192080000Y-91000000D03*
D32*
X181780000Y-86800000D03*
X192220000Y-86800000D03*
D26*
X163205324Y-95263871D02*
X162594676Y-94536129D01*
D27*
X168000000Y-91000000D03*
D28*
X173500000Y-91000000D03*
X162500000Y-91000000D03*
D26*
X173405324Y-94536129D02*
X172794676Y-95263871D01*
D16*
X168000000Y-96900000D03*
D29*
X165460000Y-96080000D03*
D30*
X172211742Y-93061222D02*
X171408258Y-94018778D01*
D29*
X170540000Y-96080000D03*
D30*
X164591742Y-94018778D02*
X163788258Y-93061222D01*
D29*
X165460000Y-95500000D03*
X165460000Y-95000000D03*
X170540000Y-95000000D03*
X170540000Y-95500000D03*
D31*
X162920000Y-91000000D03*
X173080000Y-91000000D03*
D32*
X162780000Y-86800000D03*
X173220000Y-86800000D03*
D26*
X144205324Y-95263871D02*
X143594676Y-94536129D01*
D27*
X149000000Y-91000000D03*
D28*
X154500000Y-91000000D03*
X143500000Y-91000000D03*
D26*
X154405324Y-94536129D02*
X153794676Y-95263871D01*
D16*
X149000000Y-96900000D03*
D29*
X146460000Y-96080000D03*
D30*
X153211742Y-93061222D02*
X152408258Y-94018778D01*
D29*
X151540000Y-96080000D03*
D30*
X145591742Y-94018778D02*
X144788258Y-93061222D01*
D29*
X146460000Y-95500000D03*
X146460000Y-95000000D03*
X151540000Y-95000000D03*
X151540000Y-95500000D03*
D31*
X143920000Y-91000000D03*
X154080000Y-91000000D03*
D32*
X143780000Y-86800000D03*
X154220000Y-86800000D03*
D26*
X125205324Y-95263871D02*
X124594676Y-94536129D01*
D27*
X130000000Y-91000000D03*
D28*
X135500000Y-91000000D03*
X124500000Y-91000000D03*
D26*
X135405324Y-94536129D02*
X134794676Y-95263871D01*
D16*
X130000000Y-96900000D03*
D29*
X127460000Y-96080000D03*
D30*
X134211742Y-93061222D02*
X133408258Y-94018778D01*
D29*
X132540000Y-96080000D03*
D30*
X126591742Y-94018778D02*
X125788258Y-93061222D01*
D29*
X127460000Y-95500000D03*
X127460000Y-95000000D03*
X132540000Y-95000000D03*
X132540000Y-95500000D03*
D31*
X124920000Y-91000000D03*
X135080000Y-91000000D03*
D32*
X124780000Y-86800000D03*
X135220000Y-86800000D03*
D26*
X106205324Y-95263871D02*
X105594676Y-94536129D01*
D27*
X111000000Y-91000000D03*
D28*
X116500000Y-91000000D03*
X105500000Y-91000000D03*
D26*
X116405324Y-94536129D02*
X115794676Y-95263871D01*
D16*
X111000000Y-96900000D03*
D29*
X108460000Y-96080000D03*
D30*
X115211742Y-93061222D02*
X114408258Y-94018778D01*
D29*
X113540000Y-96080000D03*
D30*
X107591742Y-94018778D02*
X106788258Y-93061222D01*
D29*
X108460000Y-95500000D03*
X108460000Y-95000000D03*
X113540000Y-95000000D03*
X113540000Y-95500000D03*
D31*
X105920000Y-91000000D03*
X116080000Y-91000000D03*
D32*
X105780000Y-86800000D03*
X116220000Y-86800000D03*
D26*
X87205324Y-95263871D02*
X86594676Y-94536129D01*
D27*
X92000000Y-91000000D03*
D28*
X97500000Y-91000000D03*
X86500000Y-91000000D03*
D26*
X97405324Y-94536129D02*
X96794676Y-95263871D01*
D16*
X92000000Y-96900000D03*
D29*
X89460000Y-96080000D03*
D30*
X96211742Y-93061222D02*
X95408258Y-94018778D01*
D29*
X94540000Y-96080000D03*
D30*
X88591742Y-94018778D02*
X87788258Y-93061222D01*
D29*
X89460000Y-95500000D03*
X89460000Y-95000000D03*
X94540000Y-95000000D03*
X94540000Y-95500000D03*
D31*
X86920000Y-91000000D03*
X97080000Y-91000000D03*
D32*
X86780000Y-86800000D03*
X97220000Y-86800000D03*
D26*
X182205324Y-76263871D02*
X181594676Y-75536129D01*
D27*
X187000000Y-72000000D03*
D28*
X192500000Y-72000000D03*
X181500000Y-72000000D03*
D26*
X192405324Y-75536129D02*
X191794676Y-76263871D01*
D16*
X187000000Y-77900000D03*
D29*
X184460000Y-77080000D03*
D30*
X191211742Y-74061222D02*
X190408258Y-75018778D01*
D29*
X189540000Y-77080000D03*
D30*
X183591742Y-75018778D02*
X182788258Y-74061222D01*
D29*
X184460000Y-76500000D03*
X184460000Y-76000000D03*
X189540000Y-76000000D03*
X189540000Y-76500000D03*
D31*
X181920000Y-72000000D03*
X192080000Y-72000000D03*
D32*
X181780000Y-67800000D03*
X192220000Y-67800000D03*
D26*
X163205324Y-76263871D02*
X162594676Y-75536129D01*
D27*
X168000000Y-72000000D03*
D28*
X173500000Y-72000000D03*
X162500000Y-72000000D03*
D26*
X173405324Y-75536129D02*
X172794676Y-76263871D01*
D16*
X168000000Y-77900000D03*
D29*
X165460000Y-77080000D03*
D30*
X172211742Y-74061222D02*
X171408258Y-75018778D01*
D29*
X170540000Y-77080000D03*
D30*
X164591742Y-75018778D02*
X163788258Y-74061222D01*
D29*
X165460000Y-76500000D03*
X165460000Y-76000000D03*
X170540000Y-76000000D03*
X170540000Y-76500000D03*
D31*
X162920000Y-72000000D03*
X173080000Y-72000000D03*
D32*
X162780000Y-67800000D03*
X173220000Y-67800000D03*
D26*
X144205324Y-76263871D02*
X143594676Y-75536129D01*
D27*
X149000000Y-72000000D03*
D28*
X154500000Y-72000000D03*
X143500000Y-72000000D03*
D26*
X154405324Y-75536129D02*
X153794676Y-76263871D01*
D16*
X149000000Y-77900000D03*
D29*
X146460000Y-77080000D03*
D30*
X153211742Y-74061222D02*
X152408258Y-75018778D01*
D29*
X151540000Y-77080000D03*
D30*
X145591742Y-75018778D02*
X144788258Y-74061222D01*
D29*
X146460000Y-76500000D03*
X146460000Y-76000000D03*
X151540000Y-76000000D03*
X151540000Y-76500000D03*
D31*
X143920000Y-72000000D03*
X154080000Y-72000000D03*
D32*
X143780000Y-67800000D03*
X154220000Y-67800000D03*
D26*
X106205324Y-76263871D02*
X105594676Y-75536129D01*
D27*
X111000000Y-72000000D03*
D28*
X116500000Y-72000000D03*
X105500000Y-72000000D03*
D26*
X116405324Y-75536129D02*
X115794676Y-76263871D01*
D16*
X111000000Y-77900000D03*
D29*
X108460000Y-77080000D03*
D30*
X115211742Y-74061222D02*
X114408258Y-75018778D01*
D29*
X113540000Y-77080000D03*
D30*
X107591742Y-75018778D02*
X106788258Y-74061222D01*
D29*
X108460000Y-76500000D03*
X108460000Y-76000000D03*
X113540000Y-76000000D03*
X113540000Y-76500000D03*
D31*
X105920000Y-72000000D03*
X116080000Y-72000000D03*
D32*
X105780000Y-67800000D03*
X116220000Y-67800000D03*
D26*
X87205324Y-76263871D02*
X86594676Y-75536129D01*
D27*
X92000000Y-72000000D03*
D28*
X97500000Y-72000000D03*
X86500000Y-72000000D03*
D26*
X97405324Y-75536129D02*
X96794676Y-76263871D01*
D16*
X92000000Y-77900000D03*
D29*
X89460000Y-77080000D03*
D30*
X96211742Y-74061222D02*
X95408258Y-75018778D01*
D29*
X94540000Y-77080000D03*
D30*
X88591742Y-75018778D02*
X87788258Y-74061222D01*
D29*
X89460000Y-76500000D03*
X89460000Y-76000000D03*
X94540000Y-76000000D03*
X94540000Y-76500000D03*
D31*
X86920000Y-72000000D03*
X97080000Y-72000000D03*
D32*
X86780000Y-67800000D03*
X97220000Y-67800000D03*
D26*
X163205324Y-57263871D02*
X162594676Y-56536129D01*
D27*
X168000000Y-53000000D03*
D28*
X173500000Y-53000000D03*
X162500000Y-53000000D03*
D26*
X173405324Y-56536129D02*
X172794676Y-57263871D01*
D16*
X168000000Y-58900000D03*
D29*
X165460000Y-58080000D03*
D30*
X172211742Y-55061222D02*
X171408258Y-56018778D01*
D29*
X170540000Y-58080000D03*
D30*
X164591742Y-56018778D02*
X163788258Y-55061222D01*
D29*
X165460000Y-57500000D03*
X165460000Y-57000000D03*
X170540000Y-57000000D03*
X170540000Y-57500000D03*
D31*
X162920000Y-53000000D03*
X173080000Y-53000000D03*
D32*
X162780000Y-48800000D03*
X173220000Y-48800000D03*
D26*
X125205324Y-57263871D02*
X124594676Y-56536129D01*
D27*
X130000000Y-53000000D03*
D28*
X135500000Y-53000000D03*
X124500000Y-53000000D03*
D26*
X135405324Y-56536129D02*
X134794676Y-57263871D01*
D16*
X130000000Y-58900000D03*
D29*
X127460000Y-58080000D03*
D30*
X134211742Y-55061222D02*
X133408258Y-56018778D01*
D29*
X132540000Y-58080000D03*
D30*
X126591742Y-56018778D02*
X125788258Y-55061222D01*
D29*
X127460000Y-57500000D03*
X127460000Y-57000000D03*
X132540000Y-57000000D03*
X132540000Y-57500000D03*
D31*
X124920000Y-53000000D03*
X135080000Y-53000000D03*
D32*
X124780000Y-48800000D03*
X135220000Y-48800000D03*
D26*
X106205324Y-57263871D02*
X105594676Y-56536129D01*
D27*
X111000000Y-53000000D03*
D28*
X116500000Y-53000000D03*
X105500000Y-53000000D03*
D26*
X116405324Y-56536129D02*
X115794676Y-57263871D01*
D16*
X111000000Y-58900000D03*
D29*
X108460000Y-58080000D03*
D30*
X115211742Y-55061222D02*
X114408258Y-56018778D01*
D29*
X113540000Y-58080000D03*
D30*
X107591742Y-56018778D02*
X106788258Y-55061222D01*
D29*
X108460000Y-57500000D03*
X108460000Y-57000000D03*
X113540000Y-57000000D03*
X113540000Y-57500000D03*
D31*
X105920000Y-53000000D03*
X116080000Y-53000000D03*
D32*
X105780000Y-48800000D03*
X116220000Y-48800000D03*
D26*
X182205324Y-57263871D02*
X181594676Y-56536129D01*
D27*
X187000000Y-53000000D03*
D28*
X192500000Y-53000000D03*
X181500000Y-53000000D03*
D26*
X192405324Y-56536129D02*
X191794676Y-57263871D01*
D16*
X187000000Y-58900000D03*
D29*
X184460000Y-58080000D03*
D30*
X191211742Y-55061222D02*
X190408258Y-56018778D01*
D29*
X189540000Y-58080000D03*
D30*
X183591742Y-56018778D02*
X182788258Y-55061222D01*
D29*
X184460000Y-57500000D03*
X184460000Y-57000000D03*
X189540000Y-57000000D03*
X189540000Y-57500000D03*
D31*
X181920000Y-53000000D03*
X192080000Y-53000000D03*
D32*
X181780000Y-48800000D03*
X192220000Y-48800000D03*
M02*
