M48
;DRILL file {KiCad 4.0.1-stable} date 2018/01/08 13:19:18
;FORMAT={-:-/ absolute / inch / decimal}
FMAT,2
INCH,TZ
T1C0.014
T2C0.016
T3C0.032
T4C0.039
T5C0.047
T6C0.051
T7C0.059
%
G90
G05
M72
T1
X3.3228Y-1.7874
X3.3228Y-5.378
X3.3543Y-4.5906
X3.622Y-2.2283
X3.622Y-2.9764
X3.622Y-3.7165
X3.622Y-4.4646
X3.622Y-5.2126
X4.3701Y-2.2205
X4.3701Y-2.9764
X4.3701Y-3.7165
X4.3701Y-4.4646
X4.3701Y-5.2126
X5.1181Y-2.2205
X5.1181Y-2.9764
X5.1181Y-3.7165
X5.1181Y-4.4646
X5.1181Y-5.2126
X5.8661Y-2.2205
X5.8661Y-2.9764
X5.8661Y-3.7165
X5.8661Y-4.4646
X5.8661Y-5.2126
X6.6142Y-2.2205
X6.6142Y-2.9764
X6.6142Y-3.7244
X6.6142Y-4.4646
X6.6142Y-5.2126
X7.1102Y-2.9291
X7.3622Y-2.2205
X7.3622Y-4.4646
X7.3622Y-5.2126
X8.1102Y-5.2126
X8.3819Y-1.7677
T2
X3.2943Y-1.9843
X3.2943Y-4.0394
X3.3228Y-1.9528
X3.3228Y-4.6378
X3.3268Y-2.5354
X3.3307Y-2.622
X3.3307Y-4.0945
X3.3346Y-3.4764
X3.374Y-3.4567
X3.4331Y-1.7953
X3.437Y-4.0551
X3.4488Y-2.5591
X3.4685Y-3.3543
X3.4724Y-1.8543
X3.4724Y-4.8465
X3.473Y-4.095
X3.4744Y-2.5984
X3.4764Y-4.7795
X3.4882Y-3.2913
X3.5984Y-4.6614
X3.7717Y-1.8976
X3.7717Y-4.1378
X3.7795Y-4.8976
X3.7847Y-2.6378
X3.7874Y-3.3858
X3.863Y-2.7165
X3.8641Y-4.9606
X3.8642Y-4.2098
X3.8661Y-1.9685
X3.8661Y-3.4646
X3.9083Y-2.5484
X4.1339Y-1.8189
X4.1654Y-4.8031
X4.1657Y-4.1058
X4.185Y-2.5591
X4.1969Y-4.8504
X4.2047Y-3.3189
X4.2165Y-1.8622
X4.217Y-2.5951
X4.2205Y-3.3543
X4.2221Y-4.111
X4.5236Y-1.8976
X4.5236Y-3.4094
X4.5377Y-4.1407
X4.5377Y-4.8888
X4.5512Y-2.6378
X4.6102Y-4.2087
X4.6122Y-2.7165
X4.6122Y-3.4646
X4.6122Y-4.9606
X4.6142Y-1.9685
X4.6654Y-2.4291
X4.8976Y-1.8189
X4.9055Y-4.0551
X4.9134Y-2.5669
X4.9134Y-4.8031
X4.937Y-3.3228
X4.9488Y-2.6084
X4.9488Y-4.8504
X4.9685Y-1.8543
X4.9685Y-3.3543
X4.9685Y-4.1024
X5.2717Y-1.8976
X5.2717Y-3.3937
X5.2756Y-2.6417
X5.2835Y-4.1339
X5.2858Y-4.8888
X5.3583Y-3.4685
X5.3602Y-2.7244
X5.3602Y-4.2126
X5.3602Y-4.9606
X5.3622Y-1.9685
X5.4252Y-2.5591
X5.6378Y-1.811
X5.6614Y-4.063
X5.6614Y-4.8031
X5.689Y-3.3071
X5.6929Y-2.5709
X5.6968Y-4.0872
X5.6969Y-4.8504
X5.7126Y-1.8583
X5.7165Y-2.5984
X5.7202Y-3.3507
X6.0197Y-2.6417
X6.0197Y-3.3858
X6.0236Y-1.9016
X6.0315Y-4.1339
X6.0394Y-4.8898
X6.1083Y-2.7165
X6.1083Y-3.4646
X6.1083Y-4.2126
X6.1083Y-4.9606
X6.1102Y-1.9685
X6.1496Y-2.5059
X6.3858Y-4.0551
X6.4016Y-1.8189
X6.4094Y-2.5669
X6.4094Y-4.7953
X6.4291Y-3.3228
X6.4449Y-2.6
X6.4449Y-4.1024
X6.4449Y-4.8504
X6.4646Y-1.8583
X6.4646Y-3.3504
X6.7717Y-1.8937
X6.7795Y-3.3858
X6.7795Y-4.8819
X6.7818Y-4.1407
X6.7874Y-2.6457
X6.8566Y-4.9702
X6.8573Y-4.2126
X6.8583Y-1.9606
X6.8583Y-2.7165
X6.8583Y-3.4646
X6.9055Y-2.5837
X7.0394Y-2.7638
X7.0561Y-3.1161
X7.07Y-2.783
X7.0945Y-2.1969
X7.0945Y-2.3858
X7.1496Y-1.8189
X7.1496Y-4.811
X7.1575Y-4.0945
X7.1772Y-2.5827
X7.1811Y-3.3189
X7.1929Y-4.8528
X7.1937Y-4.1021
X7.2087Y-1.8622
X7.2087Y-2.5984
X7.2126Y-3.3543
X7.4843Y-3.1811
X7.5012Y-2.6378
X7.5029Y-3.385
X7.5118Y-4.8976
X7.5236Y-2.7165
X7.5276Y-3.4567
X7.5354Y-3.2835
X7.5354Y-4.1417
X7.5396Y-1.8823
X7.5669Y-3.189
X7.6024Y-2.5984
X7.6043Y-4.2126
X7.6043Y-4.9606
X7.6069Y-2.7602
X7.6388Y-2.9625
X7.6535Y-4.7953
X7.6575Y-2.6063
X7.6654Y-4.8268
X7.6654Y-4.9016
X7.676Y-3.1161
X7.6772Y-3.2598
X7.685Y-3.5748
X7.686Y-3.5253
X7.7244Y-3.7559
X7.7269Y-3.2274
X7.748Y-4.1496
X7.8307Y-4.2756
X7.8494Y-2.3194
X7.858Y-2.9118
X7.8583Y-2.4094
X7.8583Y-2.5118
X7.8583Y-2.6142
X7.8583Y-2.7165
X7.8583Y-2.811
X7.8583Y-3.0079
X7.878Y-1.8425
X7.8791Y-2.0344
X7.8976Y-4.0551
X7.9055Y-1.9606
X7.9055Y-2.2756
X7.9095Y-2.2122
X7.9134Y-4.8504
X7.937Y-4.1024
X7.9484Y-4.8515
X8.0232Y-2.7596
X8.0394Y-3.0054
X8.0994Y-3.013
X8.0997Y-2.4138
X8.1063Y-4.7756
X8.126Y-2.1457
X8.1407Y-3.2472
X8.1496Y-3.8346
X8.1969Y-3.
X8.2047Y-2.3071
X8.2126Y-4.0394
X8.2362Y-3.685
X8.2638Y-4.8898
X8.2677Y-4.1496
X8.2953Y-3.0354
X8.3543Y-4.2126
X8.3543Y-4.9606
X8.3858Y-4.1024
X8.3898Y-4.2441
X8.437Y-4.0354
T3
X3.937Y-1.9957
X3.937Y-2.2957
X3.937Y-2.7831
X3.937Y-3.0831
X3.937Y-3.5114
X3.937Y-3.8114
X3.937Y-4.2398
X3.937Y-4.5398
X3.937Y-5.0272
X3.937Y-5.3272
X4.0551Y-1.9957
X4.0551Y-2.2957
X4.0551Y-2.7831
X4.0551Y-3.0831
X4.0551Y-3.5114
X4.0551Y-3.8114
X4.0551Y-4.2398
X4.0551Y-4.5398
X4.0551Y-5.0272
X4.0551Y-5.3272
X4.7441Y-1.9957
X4.7441Y-2.2957
X4.7441Y-2.7831
X4.7441Y-3.0831
X4.7441Y-3.5311
X4.7441Y-3.8311
X4.7441Y-4.2398
X4.7441Y-4.5398
X4.7441Y-4.9681
X4.7441Y-5.2681
X5.4921Y-1.9917
X5.4921Y-2.2917
X5.4921Y-2.7831
X5.4921Y-3.0831
X5.4921Y-3.5114
X5.4921Y-3.8114
X5.4921Y-4.2398
X5.4921Y-4.5398
X5.4921Y-5.0272
X5.4921Y-5.3272
X6.2402Y-1.9957
X6.2402Y-2.2957
X6.2402Y-2.7831
X6.2402Y-3.0831
X6.2402Y-3.5311
X6.2402Y-3.8311
X6.2402Y-4.2398
X6.2402Y-4.5398
X6.2402Y-5.0272
X6.2402Y-5.3272
X6.9882Y-1.9917
X6.9882Y-2.2917
X6.9882Y-2.7831
X6.9882Y-3.0831
X6.9882Y-3.5114
X6.9882Y-3.8114
X6.9882Y-4.2398
X6.9882Y-4.5398
X6.9882Y-4.9593
X6.9882Y-5.2593
X7.6772Y-4.2398
X7.6772Y-4.5398
X7.6772Y-5.0272
X7.6772Y-5.3272
X7.7646Y-1.9323
X7.7646Y-2.0323
X7.7646Y-2.1323
X7.7646Y-2.2323
X7.7646Y-2.3323
X7.7646Y-2.4323
X7.7646Y-2.5323
X7.7646Y-2.6323
X7.7646Y-2.7323
X7.7646Y-2.8323
X7.7646Y-2.9323
X7.7646Y-3.0323
X7.7646Y-3.3823
X7.7646Y-3.5823
X7.7646Y-3.9823
X7.8146Y-1.8823
X7.8146Y-1.9823
X7.8146Y-2.0823
X7.8146Y-2.1823
X7.8146Y-2.2823
X7.8146Y-2.3823
X7.8146Y-2.4823
X7.8146Y-2.5823
X7.8146Y-2.6823
X7.8146Y-2.7823
X7.8146Y-2.8823
X7.8146Y-2.9823
X7.8646Y-3.2823
X7.8646Y-3.3823
X7.8646Y-3.5823
X7.8646Y-3.9823
X7.9396Y-3.1823
X7.9396Y-3.2823
X7.9646Y-1.8823
X7.9646Y-1.9823
X7.9646Y-2.0823
X7.9646Y-2.1823
X7.9646Y-2.2823
X7.9646Y-2.3823
X7.9646Y-2.4823
X7.9646Y-2.5823
X7.9646Y-2.6823
X7.9646Y-2.7823
X7.9646Y-3.9823
X8.0146Y-3.7823
X8.0146Y-3.8823
X8.0396Y-3.1823
X8.0646Y-1.8823
X8.0646Y-1.9823
X8.0646Y-2.0823
X8.0646Y-2.1823
X8.0646Y-2.2823
X8.0646Y-2.3823
X8.0646Y-2.4823
X8.0646Y-2.5823
X8.0646Y-2.6823
X8.0646Y-2.7823
X8.0646Y-3.9823
X8.1146Y-3.7823
X8.1146Y-3.8823
X8.1396Y-3.1823
X8.1646Y-1.8823
X8.1646Y-1.9823
X8.1646Y-2.0823
X8.1646Y-2.1823
X8.1646Y-2.2823
X8.1646Y-2.3823
X8.1646Y-2.4823
X8.1646Y-2.5823
X8.1646Y-2.6823
X8.1646Y-2.7823
X8.1646Y-3.9823
X8.2146Y-3.7823
X8.2146Y-3.8823
X8.2396Y-3.1823
X8.2646Y-1.8823
X8.2646Y-1.9823
X8.2646Y-2.0823
X8.2646Y-2.1823
X8.2646Y-2.2823
X8.2646Y-2.3823
X8.2646Y-2.4823
X8.2646Y-2.5823
X8.2646Y-2.6823
X8.2646Y-2.7823
X8.2646Y-3.9823
X8.3646Y-1.9323
X8.3646Y-2.0323
X8.3646Y-2.1323
X8.3646Y-2.2323
X8.3646Y-2.3323
X8.3646Y-2.4323
X8.3646Y-2.5323
X8.3646Y-2.6323
X8.3646Y-2.7323
X8.3646Y-2.8323
X8.3646Y-2.9323
X8.3646Y-3.0323
X8.3646Y-3.9823
X8.4146Y-1.8823
X8.4146Y-1.9823
X8.4146Y-2.0823
X8.4146Y-2.1823
X8.4146Y-2.2823
X8.4146Y-2.3823
X8.4146Y-2.4823
X8.4146Y-2.5823
X8.4146Y-2.6823
X8.4146Y-2.7823
X8.4146Y-2.8823
X8.4146Y-2.9823
T5
X3.4213Y-2.2402
X3.4213Y-2.9882
X3.4213Y-3.7362
X3.4213Y-4.4843
X3.4213Y-5.2323
X3.622Y-2.3189
X3.622Y-3.0669
X3.622Y-3.815
X3.622Y-4.563
X3.622Y-5.311
X3.8228Y-2.2402
X3.8228Y-2.9882
X3.8228Y-3.7362
X3.8228Y-4.4843
X3.8228Y-5.2323
X4.1693Y-2.2402
X4.1693Y-2.9882
X4.1693Y-3.7362
X4.1693Y-4.4843
X4.1693Y-5.2323
X4.3701Y-2.3189
X4.3701Y-3.0669
X4.3701Y-3.815
X4.3701Y-4.563
X4.3701Y-5.311
X4.5709Y-2.2402
X4.5709Y-2.9882
X4.5709Y-3.7362
X4.5709Y-4.4843
X4.5709Y-5.2323
X4.9173Y-2.2402
X4.9173Y-2.9882
X4.9173Y-3.7362
X4.9173Y-4.4843
X4.9173Y-5.2323
X5.1181Y-2.3189
X5.1181Y-3.0669
X5.1181Y-3.815
X5.1181Y-4.563
X5.1181Y-5.311
X5.3189Y-2.2402
X5.3189Y-2.9882
X5.3189Y-3.7362
X5.3189Y-4.4843
X5.3189Y-5.2323
X5.6654Y-2.2402
X5.6654Y-2.9882
X5.6654Y-3.7362
X5.6654Y-4.4843
X5.6654Y-5.2323
X5.8661Y-2.3189
X5.8661Y-3.0669
X5.8661Y-3.815
X5.8661Y-4.563
X5.8661Y-5.311
X6.0669Y-2.2402
X6.0669Y-2.9882
X6.0669Y-3.7362
X6.0669Y-4.4843
X6.0669Y-5.2323
X6.4134Y-2.2402
X6.4134Y-2.9882
X6.4134Y-3.7362
X6.4134Y-4.4843
X6.4134Y-5.2323
X6.6142Y-2.3189
X6.6142Y-3.0669
X6.6142Y-3.815
X6.6142Y-4.563
X6.6142Y-5.311
X6.815Y-2.2402
X6.815Y-2.9882
X6.815Y-3.7362
X6.815Y-4.4843
X6.815Y-5.2323
X7.1614Y-2.2402
X7.1614Y-2.9882
X7.1614Y-3.7362
X7.1614Y-4.4843
X7.1614Y-5.2323
X7.3622Y-2.3189
X7.3622Y-3.0669
X7.3622Y-3.815
X7.3622Y-4.563
X7.3622Y-5.311
X7.563Y-2.2402
X7.563Y-2.9882
X7.563Y-3.7362
X7.563Y-4.4843
X7.563Y-5.2323
X7.9094Y-4.4843
X7.9094Y-5.2323
X8.1102Y-4.563
X8.1102Y-5.311
X8.311Y-4.4843
X8.311Y-5.2323
T6
X8.1555Y-3.6378
X8.4114Y-3.6378
T7
X3.472Y-2.1866
X3.472Y-2.9346
X3.472Y-3.6827
X3.472Y-4.4307
X3.472Y-5.1787
X3.522Y-2.2441
X3.522Y-2.2638
X3.522Y-2.2866
X3.522Y-2.9921
X3.522Y-3.0118
X3.522Y-3.0346
X3.522Y-3.7402
X3.522Y-3.7598
X3.522Y-3.7827
X3.522Y-4.4882
X3.522Y-4.5079
X3.522Y-4.5307
X3.522Y-5.2362
X3.522Y-5.2559
X3.522Y-5.2787
X3.722Y-2.2441
X3.722Y-2.2638
X3.722Y-2.2866
X3.722Y-2.9921
X3.722Y-3.0118
X3.722Y-3.0346
X3.722Y-3.7402
X3.722Y-3.7598
X3.722Y-3.7827
X3.722Y-4.4882
X3.722Y-4.5079
X3.722Y-4.5307
X3.722Y-5.2362
X3.722Y-5.2559
X3.722Y-5.2787
X3.772Y-2.1866
X3.772Y-2.9346
X3.772Y-3.6827
X3.772Y-4.4307
X3.772Y-5.1787
X4.2201Y-2.1866
X4.2201Y-2.9346
X4.2201Y-3.6827
X4.2201Y-4.4307
X4.2201Y-5.1787
X4.2701Y-2.2441
X4.2701Y-2.2638
X4.2701Y-2.2866
X4.2701Y-2.9921
X4.2701Y-3.0118
X4.2701Y-3.0346
X4.2701Y-3.7402
X4.2701Y-3.7598
X4.2701Y-3.7827
X4.2701Y-4.4882
X4.2701Y-4.5079
X4.2701Y-4.5307
X4.2701Y-5.2362
X4.2701Y-5.2559
X4.2701Y-5.2787
X4.4701Y-2.2441
X4.4701Y-2.2638
X4.4701Y-2.2866
X4.4701Y-2.9921
X4.4701Y-3.0118
X4.4701Y-3.0346
X4.4701Y-3.7402
X4.4701Y-3.7598
X4.4701Y-3.7827
X4.4701Y-4.4882
X4.4701Y-4.5079
X4.4701Y-4.5307
X4.4701Y-5.2362
X4.4701Y-5.2559
X4.4701Y-5.2787
X4.5201Y-2.1866
X4.5201Y-2.9346
X4.5201Y-3.6827
X4.5201Y-4.4307
X4.5201Y-5.1787
X4.9681Y-2.1866
X4.9681Y-2.9346
X4.9681Y-3.6827
X4.9681Y-4.4307
X4.9681Y-5.1787
X5.0181Y-2.2441
X5.0181Y-2.2638
X5.0181Y-2.2866
X5.0181Y-2.9921
X5.0181Y-3.0118
X5.0181Y-3.0346
X5.0181Y-3.7402
X5.0181Y-3.7598
X5.0181Y-3.7827
X5.0181Y-4.4882
X5.0181Y-4.5079
X5.0181Y-4.5307
X5.0181Y-5.2362
X5.0181Y-5.2559
X5.0181Y-5.2787
X5.2181Y-2.2441
X5.2181Y-2.2638
X5.2181Y-2.2866
X5.2181Y-2.9921
X5.2181Y-3.0118
X5.2181Y-3.0346
X5.2181Y-3.7402
X5.2181Y-3.7598
X5.2181Y-3.7827
X5.2181Y-4.4882
X5.2181Y-4.5079
X5.2181Y-4.5307
X5.2181Y-5.2362
X5.2181Y-5.2559
X5.2181Y-5.2787
X5.2681Y-2.1866
X5.2681Y-2.9346
X5.2681Y-3.6827
X5.2681Y-4.4307
X5.2681Y-5.1787
X5.7161Y-2.1866
X5.7161Y-2.9346
X5.7161Y-3.6827
X5.7161Y-4.4307
X5.7161Y-5.1787
X5.7661Y-2.2441
X5.7661Y-2.2638
X5.7661Y-2.2866
X5.7661Y-2.9921
X5.7661Y-3.0118
X5.7661Y-3.0346
X5.7661Y-3.7402
X5.7661Y-3.7598
X5.7661Y-3.7827
X5.7661Y-4.4882
X5.7661Y-4.5079
X5.7661Y-4.5307
X5.7661Y-5.2362
X5.7661Y-5.2559
X5.7661Y-5.2787
X5.9661Y-2.2441
X5.9661Y-2.2638
X5.9661Y-2.2866
X5.9661Y-2.9921
X5.9661Y-3.0118
X5.9661Y-3.0346
X5.9661Y-3.7402
X5.9661Y-3.7598
X5.9661Y-3.7827
X5.9661Y-4.4882
X5.9661Y-4.5079
X5.9661Y-4.5307
X5.9661Y-5.2362
X5.9661Y-5.2559
X5.9661Y-5.2787
X6.0161Y-2.1866
X6.0161Y-2.9346
X6.0161Y-3.6827
X6.0161Y-4.4307
X6.0161Y-5.1787
X6.4642Y-2.1866
X6.4642Y-2.9346
X6.4642Y-3.6827
X6.4642Y-4.4307
X6.4642Y-5.1787
X6.5142Y-2.2441
X6.5142Y-2.2638
X6.5142Y-2.2866
X6.5142Y-2.9921
X6.5142Y-3.0118
X6.5142Y-3.0346
X6.5142Y-3.7402
X6.5142Y-3.7598
X6.5142Y-3.7827
X6.5142Y-4.4882
X6.5142Y-4.5079
X6.5142Y-4.5307
X6.5142Y-5.2362
X6.5142Y-5.2559
X6.5142Y-5.2787
X6.7142Y-2.2441
X6.7142Y-2.2638
X6.7142Y-2.2866
X6.7142Y-2.9921
X6.7142Y-3.0118
X6.7142Y-3.0346
X6.7142Y-3.7402
X6.7142Y-3.7598
X6.7142Y-3.7827
X6.7142Y-4.4882
X6.7142Y-4.5079
X6.7142Y-4.5307
X6.7142Y-5.2362
X6.7142Y-5.2559
X6.7142Y-5.2787
X6.7642Y-2.1866
X6.7642Y-2.9346
X6.7642Y-3.6827
X6.7642Y-4.4307
X6.7642Y-5.1787
X7.2122Y-2.1866
X7.2122Y-2.9346
X7.2122Y-3.6827
X7.2122Y-4.4307
X7.2122Y-5.1787
X7.2622Y-2.2441
X7.2622Y-2.2638
X7.2622Y-2.2866
X7.2622Y-2.9921
X7.2622Y-3.0118
X7.2622Y-3.0346
X7.2622Y-3.7402
X7.2622Y-3.7598
X7.2622Y-3.7827
X7.2622Y-4.4882
X7.2622Y-4.5079
X7.2622Y-4.5307
X7.2622Y-5.2362
X7.2622Y-5.2559
X7.2622Y-5.2787
X7.4622Y-2.2441
X7.4622Y-2.2638
X7.4622Y-2.2866
X7.4622Y-2.9921
X7.4622Y-3.0118
X7.4622Y-3.0346
X7.4622Y-3.7402
X7.4622Y-3.7598
X7.4622Y-3.7827
X7.4622Y-4.4882
X7.4622Y-4.5079
X7.4622Y-4.5307
X7.4622Y-5.2362
X7.4622Y-5.2559
X7.4622Y-5.2787
X7.5122Y-2.1866
X7.5122Y-2.9346
X7.5122Y-3.6827
X7.5122Y-4.4307
X7.5122Y-5.1787
X7.9602Y-4.4307
X7.9602Y-5.1787
X8.0102Y-4.4882
X8.0102Y-4.5079
X8.0102Y-4.5307
X8.0102Y-5.2362
X8.0102Y-5.2559
X8.0102Y-5.2787
X8.2102Y-4.4882
X8.2102Y-4.5079
X8.2102Y-4.5307
X8.2102Y-5.2362
X8.2102Y-5.2559
X8.2102Y-5.2787
X8.2602Y-4.4307
X8.2602Y-5.1787
T4
X8.0098Y-3.3496G85X7.9902Y-3.3496
G05
X8.0098Y-3.4461G85X7.9902Y-3.4461
G05
X8.0689Y-3.2807G85X8.0492Y-3.2807
G05
X8.0689Y-3.515G85X8.0492Y-3.515
G05
X8.2264Y-3.2807G85X8.2067Y-3.2807
G05
X8.2264Y-3.515G85X8.2067Y-3.515
G05
X8.3445Y-3.2807G85X8.3248Y-3.2807
G05
X8.3445Y-3.515G85X8.3248Y-3.515
G05
T0
M30
