G04 #@! TF.FileFunction,Profile,NP*
%FSLAX46Y46*%
G04 Gerber Fmt 4.6, Leading zero omitted, Abs format (unit mm)*
G04 Created by KiCad (PCBNEW 4.0.1-stable) date 2018/01/08 13:19:11*
%MOMM*%
G01*
G04 APERTURE LIST*
%ADD10C,0.100000*%
%ADD11C,0.150000*%
G04 APERTURE END LIST*
D10*
D11*
X180500000Y-138000000D02*
X213500000Y-138000000D01*
X179500000Y-135000000D02*
X179500000Y-137000000D01*
X175500000Y-137000000D02*
X175500000Y-135000000D01*
X123500000Y-138000000D02*
X174500000Y-138000000D01*
X117500000Y-138000000D02*
X84500000Y-138000000D01*
X122500000Y-135000000D02*
X122500000Y-137000000D01*
X118500000Y-135000000D02*
X118500000Y-137000000D01*
X83000000Y-84500000D02*
X83000000Y-117500000D01*
X86000000Y-83500000D02*
X84000000Y-83500000D01*
X84000000Y-79500000D02*
X86000000Y-79500000D01*
X83000000Y-45500000D02*
X83000000Y-78500000D01*
X179500000Y-137000000D02*
G75*
G03X180500000Y-138000000I1000000J0D01*
G01*
X174500000Y-138000000D02*
G75*
G03X175500000Y-137000000I0J1000000D01*
G01*
X122500000Y-137000000D02*
G75*
G03X123500000Y-138000000I1000000J0D01*
G01*
X117500000Y-138000000D02*
G75*
G03X118500000Y-137000000I0J1000000D01*
G01*
X84000000Y-83500000D02*
G75*
G03X83000000Y-84500000I0J-1000000D01*
G01*
X83000000Y-78500000D02*
G75*
G03X84000000Y-79500000I1000000J0D01*
G01*
X180500000Y-44000000D02*
X213500000Y-44000000D01*
X179500000Y-45000000D02*
X179500000Y-47000000D01*
X180500000Y-44000000D02*
G75*
G03X179500000Y-45000000I0J-1000000D01*
G01*
X175500000Y-45000000D02*
X175500000Y-47000000D01*
X175500000Y-45000000D02*
G75*
G03X174500000Y-44000000I-1000000J0D01*
G01*
X123500000Y-44000000D02*
X174500000Y-44000000D01*
X122500000Y-47000000D02*
X122500000Y-45000000D01*
X123500000Y-44000000D02*
G75*
G03X122500000Y-45000000I0J-1000000D01*
G01*
X117500000Y-44000000D02*
X84500000Y-44000000D01*
X118500000Y-45000000D02*
X118500000Y-47000000D01*
X118500000Y-45000000D02*
G75*
G03X117500000Y-44000000I-1000000J0D01*
G01*
X175500000Y-135000000D02*
X179500000Y-135000000D01*
X118500000Y-135000000D02*
X122500000Y-135000000D01*
X175500000Y-47000000D02*
X179500000Y-47000000D01*
X118500000Y-47000000D02*
X122500000Y-47000000D01*
X86000000Y-79500000D02*
X86000000Y-83500000D01*
X204250000Y-126250000D02*
X204250000Y-121750000D01*
X207750000Y-126250000D02*
X204250000Y-126250000D01*
X207750000Y-121750000D02*
X207750000Y-126250000D01*
X204250000Y-121750000D02*
X207750000Y-121750000D01*
X185250000Y-126250000D02*
X185250000Y-121750000D01*
X188750000Y-126250000D02*
X185250000Y-126250000D01*
X188750000Y-121750000D02*
X188750000Y-126250000D01*
X185250000Y-121750000D02*
X188750000Y-121750000D01*
X166250000Y-126250000D02*
X166250000Y-121750000D01*
X169750000Y-126250000D02*
X166250000Y-126250000D01*
X169750000Y-121750000D02*
X169750000Y-126250000D01*
X166250000Y-121750000D02*
X169750000Y-121750000D01*
X147250000Y-126250000D02*
X147250000Y-121750000D01*
X150750000Y-126250000D02*
X147250000Y-126250000D01*
X150750000Y-121750000D02*
X150750000Y-126250000D01*
X147250000Y-121750000D02*
X150750000Y-121750000D01*
X128250000Y-126250000D02*
X128250000Y-121750000D01*
X131750000Y-126250000D02*
X128250000Y-126250000D01*
X131750000Y-121750000D02*
X131750000Y-126250000D01*
X128250000Y-121750000D02*
X131750000Y-121750000D01*
X109250000Y-126250000D02*
X109250000Y-121750000D01*
X112750000Y-126250000D02*
X109250000Y-126250000D01*
X112750000Y-121750000D02*
X112750000Y-126250000D01*
X109250000Y-121750000D02*
X112750000Y-121750000D01*
X90250000Y-126250000D02*
X90250000Y-121750000D01*
X93750000Y-126250000D02*
X90250000Y-126250000D01*
X93750000Y-121750000D02*
X93750000Y-126250000D01*
X90250000Y-121750000D02*
X93750000Y-121750000D01*
X90250000Y-107250000D02*
X90250000Y-102750000D01*
X93750000Y-107250000D02*
X90250000Y-107250000D01*
X93750000Y-102750000D02*
X93750000Y-107250000D01*
X90250000Y-102750000D02*
X93750000Y-102750000D01*
X109250000Y-107250000D02*
X109250000Y-102750000D01*
X112750000Y-107250000D02*
X109250000Y-107250000D01*
X112750000Y-102750000D02*
X112750000Y-107250000D01*
X109250000Y-102750000D02*
X112750000Y-102750000D01*
X128250000Y-107250000D02*
X128250000Y-102750000D01*
X131750000Y-107250000D02*
X128250000Y-107250000D01*
X131750000Y-102750000D02*
X131750000Y-107250000D01*
X128250000Y-102750000D02*
X131750000Y-102750000D01*
X147250000Y-107250000D02*
X147250000Y-102750000D01*
X150750000Y-107250000D02*
X147250000Y-107250000D01*
X150750000Y-102750000D02*
X150750000Y-107250000D01*
X147300000Y-102750000D02*
X150750000Y-102750000D01*
X166250000Y-107250000D02*
X166250000Y-102750000D01*
X169750000Y-107250000D02*
X166250000Y-107250000D01*
X169750000Y-102750000D02*
X169750000Y-107250000D01*
X166250000Y-102750000D02*
X169750000Y-102750000D01*
X185250000Y-107250000D02*
X185250000Y-102750000D01*
X188750000Y-107250000D02*
X185250000Y-107250000D01*
X188750000Y-102750000D02*
X188750000Y-107250000D01*
X185250000Y-102750000D02*
X188750000Y-102750000D01*
X204250000Y-107250000D02*
X204250000Y-102750000D01*
X207750000Y-107250000D02*
X204250000Y-107250000D01*
X207750000Y-102750000D02*
X207750000Y-107250000D01*
X204250000Y-102750000D02*
X207750000Y-102750000D01*
X185250000Y-88250000D02*
X185250000Y-83750000D01*
X188750000Y-88250000D02*
X185250000Y-88250000D01*
X188750000Y-83750000D02*
X188750000Y-88250000D01*
X185250000Y-83750000D02*
X188750000Y-83750000D01*
X166250000Y-88250000D02*
X166250000Y-83750000D01*
X169750000Y-88250000D02*
X166250000Y-88250000D01*
X169750000Y-83750000D02*
X169750000Y-88250000D01*
X166300000Y-83750000D02*
X169750000Y-83750000D01*
X147250000Y-88250000D02*
X147250000Y-83750000D01*
X150750000Y-88250000D02*
X147250000Y-88250000D01*
X150750000Y-83750000D02*
X150750000Y-88250000D01*
X147250000Y-83750000D02*
X150750000Y-83750000D01*
X128250000Y-88250000D02*
X128250000Y-83750000D01*
X131750000Y-88250000D02*
X128250000Y-88250000D01*
X131750000Y-83750000D02*
X131750000Y-88250000D01*
X128250000Y-83750000D02*
X131750000Y-83750000D01*
X109250000Y-88250000D02*
X109250000Y-83750000D01*
X112750000Y-88250000D02*
X109250000Y-88250000D01*
X112750000Y-83750000D02*
X112750000Y-88250000D01*
X109250000Y-83750000D02*
X112750000Y-83750000D01*
X90250000Y-88250000D02*
X90250000Y-83750000D01*
X93750000Y-88250000D02*
X90250000Y-88250000D01*
X93750000Y-83750000D02*
X93750000Y-88250000D01*
X90250000Y-83750000D02*
X93750000Y-83750000D01*
X90250000Y-69250000D02*
X90250000Y-64750000D01*
X93750000Y-69250000D02*
X90250000Y-69250000D01*
X93750000Y-64750000D02*
X93750000Y-69250000D01*
X90250000Y-64750000D02*
X93750000Y-64750000D01*
X109250000Y-69250000D02*
X109250000Y-64750000D01*
X112750000Y-69250000D02*
X109250000Y-69250000D01*
X112750000Y-64750000D02*
X112750000Y-69250000D01*
X109250000Y-64750000D02*
X112750000Y-64750000D01*
X128250000Y-69250000D02*
X128250000Y-64750000D01*
X131750000Y-69250000D02*
X128250000Y-69250000D01*
X131750000Y-64750000D02*
X131750000Y-69250000D01*
X128250000Y-64750000D02*
X131750000Y-64750000D01*
X147250000Y-69250000D02*
X147250000Y-64750000D01*
X150750000Y-69250000D02*
X147250000Y-69250000D01*
X150750000Y-64750000D02*
X150750000Y-69250000D01*
X147250000Y-64750000D02*
X150750000Y-64750000D01*
X166250000Y-69250000D02*
X166250000Y-64750000D01*
X169750000Y-69250000D02*
X166250000Y-69250000D01*
X169750000Y-64750000D02*
X169750000Y-69250000D01*
X166250000Y-64750000D02*
X169750000Y-64750000D01*
X185250000Y-69250000D02*
X185250000Y-64750000D01*
X188750000Y-69250000D02*
X185250000Y-69250000D01*
X188750000Y-64750000D02*
X188750000Y-69250000D01*
X185250000Y-64750000D02*
X188750000Y-64750000D01*
X185250000Y-50250000D02*
X185250000Y-45750000D01*
X188750000Y-50250000D02*
X185250000Y-50250000D01*
X188750000Y-45750000D02*
X188750000Y-50250000D01*
X185250000Y-45750000D02*
X188750000Y-45750000D01*
X166250000Y-50250000D02*
X166250000Y-45750000D01*
X169750000Y-50250000D02*
X166250000Y-50250000D01*
X169750000Y-45750000D02*
X169750000Y-50250000D01*
X166250000Y-45750000D02*
X169750000Y-45750000D01*
X147250000Y-50250000D02*
X147250000Y-45750000D01*
X150750000Y-50250000D02*
X147250000Y-50250000D01*
X150750000Y-45750000D02*
X150750000Y-50250000D01*
X147250000Y-45750000D02*
X150750000Y-45750000D01*
X128250000Y-50250000D02*
X128250000Y-45750000D01*
X131750000Y-50250000D02*
X128250000Y-50250000D01*
X131750000Y-45750000D02*
X131750000Y-50250000D01*
X128250000Y-45750000D02*
X131750000Y-45750000D01*
X109250000Y-50250000D02*
X109250000Y-45750000D01*
X112750000Y-50250000D02*
X109250000Y-50250000D01*
X112750000Y-45750000D02*
X112750000Y-50250000D01*
X109250000Y-45750000D02*
X112750000Y-45750000D01*
X90250000Y-50250000D02*
X90250000Y-45750000D01*
X93750000Y-50250000D02*
X90250000Y-50250000D01*
X93750000Y-45750000D02*
X93750000Y-50250000D01*
X90250000Y-45750000D02*
X93750000Y-45750000D01*
X204500000Y-120000000D02*
X188500000Y-120000000D01*
X188500000Y-119000000D02*
X204500000Y-119000000D01*
X185500000Y-120000000D02*
X169500000Y-120000000D01*
X169500000Y-119000000D02*
X185500000Y-119000000D01*
X166500000Y-120000000D02*
X150500000Y-120000000D01*
X150500000Y-119000000D02*
X166500000Y-119000000D01*
X147500000Y-120000000D02*
X131500000Y-120000000D01*
X131500000Y-119000000D02*
X147500000Y-119000000D01*
X128500000Y-120000000D02*
X112500000Y-120000000D01*
X112500000Y-119000000D02*
X128500000Y-119000000D01*
X93500000Y-120000000D02*
X109500000Y-120000000D01*
X93500000Y-119000000D02*
X109500000Y-119000000D01*
X90500000Y-120000000D02*
X84500000Y-120000000D01*
X84500000Y-119000000D02*
X90500000Y-119000000D01*
X215000000Y-117500000D02*
X215000000Y-45500000D01*
X207500000Y-119000000D02*
X213500000Y-119000000D01*
X213500000Y-120000000D02*
X207500000Y-120000000D01*
X215000000Y-136500000D02*
X215000000Y-121500000D01*
X83000000Y-121500000D02*
X83000000Y-136500000D01*
X215000000Y-45500000D02*
G75*
G03X213500000Y-44000000I-1500000J0D01*
G01*
X84500000Y-44000000D02*
G75*
G03X83000000Y-45500000I0J-1500000D01*
G01*
X207000000Y-119500000D02*
G75*
G03X207500000Y-120000000I500000J0D01*
G01*
X207500000Y-119000000D02*
G75*
G03X207000000Y-119500000I0J-500000D01*
G01*
X204500000Y-120000000D02*
G75*
G03X205000000Y-119500000I0J500000D01*
G01*
X205000000Y-119500000D02*
G75*
G03X204500000Y-119000000I-500000J0D01*
G01*
X188000000Y-119500000D02*
G75*
G03X188500000Y-120000000I500000J0D01*
G01*
X188500000Y-119000000D02*
G75*
G03X188000000Y-119500000I0J-500000D01*
G01*
X185500000Y-120000000D02*
G75*
G03X186000000Y-119500000I0J500000D01*
G01*
X186000000Y-119500000D02*
G75*
G03X185500000Y-119000000I-500000J0D01*
G01*
X169000000Y-119500000D02*
G75*
G03X169500000Y-120000000I500000J0D01*
G01*
X169500000Y-119000000D02*
G75*
G03X169000000Y-119500000I0J-500000D01*
G01*
X166500000Y-120000000D02*
G75*
G03X167000000Y-119500000I0J500000D01*
G01*
X167000000Y-119500000D02*
G75*
G03X166500000Y-119000000I-500000J0D01*
G01*
X150000000Y-119500000D02*
G75*
G03X150500000Y-120000000I500000J0D01*
G01*
X150500000Y-119000000D02*
G75*
G03X150000000Y-119500000I0J-500000D01*
G01*
X147500000Y-120000000D02*
G75*
G03X148000000Y-119500000I0J500000D01*
G01*
X148000000Y-119500000D02*
G75*
G03X147500000Y-119000000I-500000J0D01*
G01*
X131000000Y-119500000D02*
G75*
G03X131500000Y-120000000I500000J0D01*
G01*
X131500000Y-119000000D02*
G75*
G03X131000000Y-119500000I0J-500000D01*
G01*
X128500000Y-120000000D02*
G75*
G03X129000000Y-119500000I0J500000D01*
G01*
X129000000Y-119500000D02*
G75*
G03X128500000Y-119000000I-500000J0D01*
G01*
X112000000Y-119500000D02*
G75*
G03X112500000Y-120000000I500000J0D01*
G01*
X112500000Y-119000000D02*
G75*
G03X112000000Y-119500000I0J-500000D01*
G01*
X109500000Y-120000000D02*
G75*
G03X110000000Y-119500000I0J500000D01*
G01*
X110000000Y-119500000D02*
G75*
G03X109500000Y-119000000I-500000J0D01*
G01*
X93000000Y-119500000D02*
G75*
G03X93500000Y-120000000I500000J0D01*
G01*
X93500000Y-119000000D02*
G75*
G03X93000000Y-119500000I0J-500000D01*
G01*
X90500000Y-120000000D02*
G75*
G03X91000000Y-119500000I0J500000D01*
G01*
X91000000Y-119500000D02*
G75*
G03X90500000Y-119000000I-500000J0D01*
G01*
X83000000Y-117500000D02*
G75*
G03X84500000Y-119000000I1500000J0D01*
G01*
X84500000Y-120000000D02*
G75*
G03X83000000Y-121500000I0J-1500000D01*
G01*
X83000000Y-136500000D02*
G75*
G03X84500000Y-138000000I1500000J0D01*
G01*
X213500000Y-138000000D02*
G75*
G03X215000000Y-136500000I0J1500000D01*
G01*
X215000000Y-121500000D02*
G75*
G03X213500000Y-120000000I-1500000J0D01*
G01*
X213500000Y-119000000D02*
G75*
G03X215000000Y-117500000I0J1500000D01*
G01*
M02*
