G04 #@! TF.FileFunction,Soldermask,Bot*
%FSLAX46Y46*%
G04 Gerber Fmt 4.6, Leading zero omitted, Abs format (unit mm)*
G04 Created by KiCad (PCBNEW 4.0.1-stable) date 2018/01/08 13:19:11*
%MOMM*%
G01*
G04 APERTURE LIST*
%ADD10C,0.100000*%
%ADD11C,5.100400*%
%ADD12R,1.797000X1.797000*%
%ADD13C,1.797000*%
%ADD14R,2.000000X1.400000*%
%ADD15C,2.600000*%
%ADD16C,1.924000*%
%ADD17R,1.543000X1.035000*%
%ADD18R,1.350000X1.700000*%
%ADD19C,2.400000*%
%ADD20C,1.600000*%
%ADD21O,2.900000X2.100000*%
%ADD22R,1.924000X1.924000*%
%ADD23C,1.650000*%
%ADD24C,4.400000*%
%ADD25C,2.300000*%
%ADD26C,2.800000*%
%ADD27C,1.950000*%
%ADD28C,2.100000*%
%ADD29C,1.400000*%
G04 APERTURE END LIST*
D10*
D11*
X139500000Y-100500000D03*
X139500000Y-62500000D03*
X158500000Y-119500000D03*
X120500000Y-119500000D03*
D12*
X208650000Y-96070000D03*
D13*
X208650000Y-98610000D03*
X206110000Y-96070000D03*
X206110000Y-98610000D03*
X203570000Y-96070000D03*
X203570000Y-98610000D03*
D11*
X139500000Y-119500000D03*
X196500000Y-119500000D03*
D14*
X113400000Y-48875000D03*
X113400000Y-47125000D03*
X108600000Y-47125000D03*
X108600000Y-48875000D03*
X94400000Y-48875000D03*
X94400000Y-47125000D03*
X89600000Y-47125000D03*
X89600000Y-48875000D03*
D15*
X199000000Y-98000000D03*
X212750000Y-98000000D03*
D11*
X177500000Y-119500000D03*
X177500000Y-100500000D03*
X177500000Y-62500000D03*
D16*
X213730000Y-47810000D03*
X213730000Y-50350000D03*
X213730000Y-52890000D03*
X213730000Y-55430000D03*
X213730000Y-57970000D03*
X213730000Y-60510000D03*
X213730000Y-63050000D03*
X213730000Y-65590000D03*
X213730000Y-68130000D03*
X213730000Y-70670000D03*
X213730000Y-73210000D03*
X213730000Y-75750000D03*
X198490000Y-75750000D03*
X198490000Y-73210000D03*
X198490000Y-70670000D03*
X198490000Y-68130000D03*
X198490000Y-65590000D03*
X198490000Y-63050000D03*
X198490000Y-60510000D03*
X198490000Y-57970000D03*
X198490000Y-55430000D03*
X198490000Y-52890000D03*
X198490000Y-50350000D03*
X198490000Y-47810000D03*
D13*
X199760000Y-85910000D03*
X199760000Y-90990000D03*
X197220000Y-85910000D03*
X197220000Y-90990000D03*
D15*
X199000000Y-135750000D03*
X212750000Y-135750000D03*
D13*
X197220000Y-101150000D03*
X199760000Y-101150000D03*
X212460000Y-101150000D03*
X209920000Y-101150000D03*
X207380000Y-101150000D03*
X204840000Y-101150000D03*
X202300000Y-101150000D03*
D15*
X199000000Y-116750000D03*
X212750000Y-116750000D03*
X199000000Y-80500000D03*
D13*
X209285000Y-80830000D03*
X206745000Y-80830000D03*
X204205000Y-80830000D03*
X201665000Y-80830000D03*
D11*
X101500000Y-100500000D03*
X101500000Y-119500000D03*
D13*
X209920000Y-70670000D03*
X207380000Y-70670000D03*
X204840000Y-70670000D03*
X202300000Y-70670000D03*
X202300000Y-68130000D03*
X204840000Y-68130000D03*
X207380000Y-68130000D03*
X209920000Y-68130000D03*
X209920000Y-65590000D03*
X207380000Y-65590000D03*
X204840000Y-65590000D03*
X202300000Y-65590000D03*
X202300000Y-63050000D03*
X204840000Y-63050000D03*
X207380000Y-63050000D03*
X209920000Y-63050000D03*
X209920000Y-60510000D03*
X207380000Y-60510000D03*
X204840000Y-60510000D03*
X202300000Y-60510000D03*
X202300000Y-57970000D03*
X204840000Y-57970000D03*
X207380000Y-57970000D03*
X209920000Y-57970000D03*
X209920000Y-55430000D03*
X207380000Y-55430000D03*
X204840000Y-55430000D03*
X202300000Y-55430000D03*
X202300000Y-52890000D03*
X204840000Y-52890000D03*
X207380000Y-52890000D03*
X209920000Y-52890000D03*
X209920000Y-50350000D03*
X207380000Y-50350000D03*
X204840000Y-50350000D03*
X202300000Y-50350000D03*
X202300000Y-47810000D03*
X204840000Y-47810000D03*
X207380000Y-47810000D03*
X209920000Y-47810000D03*
D17*
X209285000Y-77154620D03*
X209285000Y-78155380D03*
X206745000Y-77154620D03*
X206745000Y-78155380D03*
X204205000Y-77154620D03*
X204205000Y-78155380D03*
X201665000Y-77154620D03*
X201665000Y-78155380D03*
D13*
X199760000Y-83370000D03*
X201665000Y-83370000D03*
D11*
X101500000Y-62500000D03*
D18*
X100000000Y-52725000D03*
X100000000Y-56275000D03*
D12*
X100000000Y-58310000D03*
D13*
X100000000Y-50690000D03*
D18*
X103000000Y-52725000D03*
X103000000Y-56275000D03*
D12*
X103000000Y-58310000D03*
D13*
X103000000Y-50690000D03*
D18*
X120500000Y-52725000D03*
X120500000Y-56275000D03*
D12*
X120500000Y-58310000D03*
D13*
X120500000Y-50690000D03*
D18*
X139500000Y-52625000D03*
X139500000Y-56175000D03*
D12*
X139500000Y-58210000D03*
D13*
X139500000Y-50590000D03*
D18*
X158500000Y-52725000D03*
X158500000Y-56275000D03*
D12*
X158500000Y-58310000D03*
D13*
X158500000Y-50690000D03*
D18*
X177500000Y-52625000D03*
X177500000Y-56175000D03*
D12*
X177500000Y-58210000D03*
D13*
X177500000Y-50590000D03*
D18*
X100000000Y-72725000D03*
X100000000Y-76275000D03*
D12*
X100000000Y-78310000D03*
D13*
X100000000Y-70690000D03*
D18*
X103000000Y-72725000D03*
X103000000Y-76275000D03*
D12*
X103000000Y-78310000D03*
D13*
X103000000Y-70690000D03*
D18*
X120500000Y-72725000D03*
X120500000Y-76275000D03*
D12*
X120500000Y-78310000D03*
D13*
X120500000Y-70690000D03*
D18*
X139500000Y-72725000D03*
X139500000Y-76275000D03*
D12*
X139500000Y-78310000D03*
D13*
X139500000Y-70690000D03*
D18*
X158500000Y-72725000D03*
X158500000Y-76275000D03*
D12*
X158500000Y-78310000D03*
D13*
X158500000Y-70690000D03*
D18*
X177500000Y-72725000D03*
X177500000Y-76275000D03*
D12*
X177500000Y-78310000D03*
D13*
X177500000Y-70690000D03*
D18*
X100000000Y-91225000D03*
X100000000Y-94775000D03*
D12*
X100000000Y-96810000D03*
D13*
X100000000Y-89190000D03*
D18*
X103000000Y-91225000D03*
X103000000Y-94775000D03*
D12*
X103000000Y-96810000D03*
D13*
X103000000Y-89190000D03*
D18*
X120500000Y-91725000D03*
X120500000Y-95275000D03*
D12*
X120500000Y-97310000D03*
D13*
X120500000Y-89690000D03*
D18*
X139500000Y-91225000D03*
X139500000Y-94775000D03*
D12*
X139500000Y-96810000D03*
D13*
X139500000Y-89190000D03*
D18*
X158500000Y-91725000D03*
X158500000Y-95275000D03*
D12*
X158500000Y-97310000D03*
D13*
X158500000Y-89690000D03*
D18*
X177500000Y-91225000D03*
X177500000Y-94775000D03*
D12*
X177500000Y-96810000D03*
D13*
X177500000Y-89190000D03*
D18*
X100000000Y-109725000D03*
X100000000Y-113275000D03*
D12*
X100000000Y-115310000D03*
D13*
X100000000Y-107690000D03*
D18*
X103000000Y-109725000D03*
X103000000Y-113275000D03*
D12*
X103000000Y-115310000D03*
D13*
X103000000Y-107690000D03*
D18*
X120500000Y-109725000D03*
X120500000Y-113275000D03*
D12*
X120500000Y-115310000D03*
D13*
X120500000Y-107690000D03*
D18*
X139500000Y-109725000D03*
X139500000Y-113275000D03*
D12*
X139500000Y-115310000D03*
D13*
X139500000Y-107690000D03*
D18*
X158500000Y-109725000D03*
X158500000Y-113275000D03*
D12*
X158500000Y-115310000D03*
D13*
X158500000Y-107690000D03*
D18*
X177500000Y-109725000D03*
X177500000Y-113275000D03*
D12*
X177500000Y-115310000D03*
D13*
X177500000Y-107690000D03*
D18*
X195000000Y-109725000D03*
X195000000Y-113275000D03*
D12*
X195000000Y-115310000D03*
D13*
X195000000Y-107690000D03*
D18*
X100000000Y-129725000D03*
X100000000Y-133275000D03*
D12*
X100000000Y-135310000D03*
D13*
X100000000Y-127690000D03*
D18*
X103000000Y-129725000D03*
X103000000Y-133275000D03*
D12*
X103000000Y-135310000D03*
D13*
X103000000Y-127690000D03*
D18*
X120500000Y-128225000D03*
X120500000Y-131775000D03*
D12*
X120500000Y-133810000D03*
D13*
X120500000Y-126190000D03*
D18*
X139500000Y-129725000D03*
X139500000Y-133275000D03*
D12*
X139500000Y-135310000D03*
D13*
X139500000Y-127690000D03*
D18*
X158500000Y-129725000D03*
X158500000Y-133275000D03*
D12*
X158500000Y-135310000D03*
D13*
X158500000Y-127690000D03*
D18*
X177500000Y-128000000D03*
X177500000Y-131550000D03*
D12*
X177500000Y-133585000D03*
D13*
X177500000Y-125965000D03*
D18*
X195000000Y-129725000D03*
X195000000Y-133275000D03*
D12*
X195000000Y-135310000D03*
D13*
X195000000Y-127690000D03*
D16*
X197220000Y-49080000D03*
X197220000Y-51620000D03*
X197220000Y-54160000D03*
X197220000Y-56700000D03*
X197220000Y-59240000D03*
X197220000Y-61780000D03*
X197220000Y-64320000D03*
X197220000Y-66860000D03*
X197220000Y-69400000D03*
X197220000Y-71940000D03*
X197220000Y-74480000D03*
X197220000Y-77020000D03*
X212460000Y-77020000D03*
X212460000Y-74480000D03*
X212460000Y-71940000D03*
X212460000Y-69400000D03*
X212460000Y-66860000D03*
X212460000Y-64320000D03*
X212460000Y-61780000D03*
X212460000Y-59240000D03*
X212460000Y-56700000D03*
X212460000Y-54160000D03*
X212460000Y-51620000D03*
X212460000Y-49080000D03*
D15*
X212750000Y-80500000D03*
D19*
X207150000Y-92400000D03*
X213650000Y-92400000D03*
D20*
X206500000Y-85430000D03*
X213500000Y-85430000D03*
D21*
X204700000Y-83330000D03*
X203200000Y-87530000D03*
X211700000Y-83330000D03*
X208700000Y-83330000D03*
D20*
X213500000Y-87180000D03*
X206500000Y-87180000D03*
D21*
X211700000Y-89280000D03*
X208700000Y-89280000D03*
X204700000Y-89280000D03*
X203200000Y-85080000D03*
D14*
X132400000Y-48875000D03*
X132400000Y-47125000D03*
X127600000Y-47125000D03*
X127600000Y-48875000D03*
X151400000Y-48875000D03*
X151400000Y-47125000D03*
X146600000Y-47125000D03*
X146600000Y-48875000D03*
X170400000Y-48875000D03*
X170400000Y-47125000D03*
X165600000Y-47125000D03*
X165600000Y-48875000D03*
X89600000Y-66125000D03*
X89600000Y-67875000D03*
X94400000Y-67875000D03*
X94400000Y-66125000D03*
X108600000Y-66125000D03*
X108600000Y-67875000D03*
X113400000Y-67875000D03*
X113400000Y-66125000D03*
X127600000Y-66125000D03*
X127600000Y-67875000D03*
X132400000Y-67875000D03*
X132400000Y-66125000D03*
X146600000Y-66125000D03*
X146600000Y-67875000D03*
X151400000Y-67875000D03*
X151400000Y-66125000D03*
X165600000Y-66125000D03*
X165600000Y-67875000D03*
X170400000Y-67875000D03*
X170400000Y-66125000D03*
X184600000Y-66125000D03*
X184600000Y-67875000D03*
X189400000Y-67875000D03*
X189400000Y-66125000D03*
X94400000Y-86875000D03*
X94400000Y-85125000D03*
X89600000Y-85125000D03*
X89600000Y-86875000D03*
X113400000Y-86875000D03*
X113400000Y-85125000D03*
X108600000Y-85125000D03*
X108600000Y-86875000D03*
X132400000Y-86875000D03*
X132400000Y-85125000D03*
X127600000Y-85125000D03*
X127600000Y-86875000D03*
X151400000Y-86875000D03*
X151400000Y-85125000D03*
X146600000Y-85125000D03*
X146600000Y-86875000D03*
X170400000Y-86875000D03*
X170400000Y-85125000D03*
X165600000Y-85125000D03*
X165600000Y-86875000D03*
X189400000Y-86875000D03*
X189400000Y-85125000D03*
X184600000Y-85125000D03*
X184600000Y-86875000D03*
X89600000Y-104125000D03*
X89600000Y-105875000D03*
X94400000Y-105875000D03*
X94400000Y-104125000D03*
X108600000Y-104125000D03*
X108600000Y-105875000D03*
X113400000Y-105875000D03*
X113400000Y-104125000D03*
X127600000Y-104125000D03*
X127600000Y-105875000D03*
X132400000Y-105875000D03*
X132400000Y-104125000D03*
X146600000Y-104125000D03*
X146600000Y-105875000D03*
X151400000Y-105875000D03*
X151400000Y-104125000D03*
X165600000Y-104125000D03*
X165600000Y-105875000D03*
X170400000Y-105875000D03*
X170400000Y-104125000D03*
X184600000Y-104125000D03*
X184600000Y-105875000D03*
X189400000Y-105875000D03*
X189400000Y-104125000D03*
X203600000Y-104125000D03*
X203600000Y-105875000D03*
X208400000Y-105875000D03*
X208400000Y-104125000D03*
X94400000Y-124875000D03*
X94400000Y-123125000D03*
X89600000Y-123125000D03*
X89600000Y-124875000D03*
X113400000Y-124875000D03*
X113400000Y-123125000D03*
X108600000Y-123125000D03*
X108600000Y-124875000D03*
X132400000Y-124875000D03*
X132400000Y-123125000D03*
X127600000Y-123125000D03*
X127600000Y-124875000D03*
X151400000Y-124875000D03*
X151400000Y-123125000D03*
X146600000Y-123125000D03*
X146600000Y-124875000D03*
X170400000Y-124875000D03*
X170400000Y-123125000D03*
X165600000Y-123125000D03*
X165600000Y-124875000D03*
X189400000Y-124875000D03*
X189400000Y-123125000D03*
X184600000Y-123125000D03*
X184600000Y-124875000D03*
X208400000Y-124875000D03*
X208400000Y-123125000D03*
X203600000Y-123125000D03*
X203600000Y-124875000D03*
X189400000Y-48875000D03*
X189400000Y-47125000D03*
X184600000Y-47125000D03*
X184600000Y-48875000D03*
D22*
X195000000Y-86580000D03*
X195000000Y-84040000D03*
X195000000Y-81500000D03*
D23*
X125205324Y-76263871D02*
X124594676Y-75536129D01*
D24*
X130000000Y-72000000D03*
D25*
X135500000Y-72000000D03*
X124500000Y-72000000D03*
D23*
X135405324Y-75536129D02*
X134794676Y-76263871D01*
D15*
X130000000Y-77900000D03*
D26*
X127460000Y-77080000D03*
D27*
X134211742Y-74061222D02*
X133408258Y-75018778D01*
D26*
X132540000Y-77080000D03*
D27*
X126591742Y-75018778D02*
X125788258Y-74061222D01*
D26*
X127460000Y-76500000D03*
X127460000Y-76000000D03*
X132540000Y-76000000D03*
X132540000Y-76500000D03*
D28*
X124920000Y-72000000D03*
X135080000Y-72000000D03*
D29*
X124780000Y-67800000D03*
X135220000Y-67800000D03*
D23*
X144205324Y-57263871D02*
X143594676Y-56536129D01*
D24*
X149000000Y-53000000D03*
D25*
X154500000Y-53000000D03*
X143500000Y-53000000D03*
D23*
X154405324Y-56536129D02*
X153794676Y-57263871D01*
D15*
X149000000Y-58900000D03*
D26*
X146460000Y-58080000D03*
D27*
X153211742Y-55061222D02*
X152408258Y-56018778D01*
D26*
X151540000Y-58080000D03*
D27*
X145591742Y-56018778D02*
X144788258Y-55061222D01*
D26*
X146460000Y-57500000D03*
X146460000Y-57000000D03*
X151540000Y-57000000D03*
X151540000Y-57500000D03*
D28*
X143920000Y-53000000D03*
X154080000Y-53000000D03*
D29*
X143780000Y-48800000D03*
X154220000Y-48800000D03*
D23*
X87205324Y-57263871D02*
X86594676Y-56536129D01*
D24*
X92000000Y-53000000D03*
D25*
X97500000Y-53000000D03*
X86500000Y-53000000D03*
D23*
X97405324Y-56536129D02*
X96794676Y-57263871D01*
D15*
X92000000Y-58900000D03*
D26*
X89460000Y-58080000D03*
D27*
X96211742Y-55061222D02*
X95408258Y-56018778D01*
D26*
X94540000Y-58080000D03*
D27*
X88591742Y-56018778D02*
X87788258Y-55061222D01*
D26*
X89460000Y-57500000D03*
X89460000Y-57000000D03*
X94540000Y-57000000D03*
X94540000Y-57500000D03*
D28*
X86920000Y-53000000D03*
X97080000Y-53000000D03*
D29*
X86780000Y-48800000D03*
X97220000Y-48800000D03*
D23*
X201205324Y-133263871D02*
X200594676Y-132536129D01*
D24*
X206000000Y-129000000D03*
D25*
X211500000Y-129000000D03*
X200500000Y-129000000D03*
D23*
X211405324Y-132536129D02*
X210794676Y-133263871D01*
D15*
X206000000Y-134900000D03*
D26*
X203460000Y-134080000D03*
D27*
X210211742Y-131061222D02*
X209408258Y-132018778D01*
D26*
X208540000Y-134080000D03*
D27*
X202591742Y-132018778D02*
X201788258Y-131061222D01*
D26*
X203460000Y-133500000D03*
X203460000Y-133000000D03*
X208540000Y-133000000D03*
X208540000Y-133500000D03*
D28*
X200920000Y-129000000D03*
X211080000Y-129000000D03*
D29*
X200780000Y-124800000D03*
X211220000Y-124800000D03*
D23*
X182205324Y-133263871D02*
X181594676Y-132536129D01*
D24*
X187000000Y-129000000D03*
D25*
X192500000Y-129000000D03*
X181500000Y-129000000D03*
D23*
X192405324Y-132536129D02*
X191794676Y-133263871D01*
D15*
X187000000Y-134900000D03*
D26*
X184460000Y-134080000D03*
D27*
X191211742Y-131061222D02*
X190408258Y-132018778D01*
D26*
X189540000Y-134080000D03*
D27*
X183591742Y-132018778D02*
X182788258Y-131061222D01*
D26*
X184460000Y-133500000D03*
X184460000Y-133000000D03*
X189540000Y-133000000D03*
X189540000Y-133500000D03*
D28*
X181920000Y-129000000D03*
X192080000Y-129000000D03*
D29*
X181780000Y-124800000D03*
X192220000Y-124800000D03*
D23*
X163205324Y-133263871D02*
X162594676Y-132536129D01*
D24*
X168000000Y-129000000D03*
D25*
X173500000Y-129000000D03*
X162500000Y-129000000D03*
D23*
X173405324Y-132536129D02*
X172794676Y-133263871D01*
D15*
X168000000Y-134900000D03*
D26*
X165460000Y-134080000D03*
D27*
X172211742Y-131061222D02*
X171408258Y-132018778D01*
D26*
X170540000Y-134080000D03*
D27*
X164591742Y-132018778D02*
X163788258Y-131061222D01*
D26*
X165460000Y-133500000D03*
X165460000Y-133000000D03*
X170540000Y-133000000D03*
X170540000Y-133500000D03*
D28*
X162920000Y-129000000D03*
X173080000Y-129000000D03*
D29*
X162780000Y-124800000D03*
X173220000Y-124800000D03*
D23*
X144205324Y-133263871D02*
X143594676Y-132536129D01*
D24*
X149000000Y-129000000D03*
D25*
X154500000Y-129000000D03*
X143500000Y-129000000D03*
D23*
X154405324Y-132536129D02*
X153794676Y-133263871D01*
D15*
X149000000Y-134900000D03*
D26*
X146460000Y-134080000D03*
D27*
X153211742Y-131061222D02*
X152408258Y-132018778D01*
D26*
X151540000Y-134080000D03*
D27*
X145591742Y-132018778D02*
X144788258Y-131061222D01*
D26*
X146460000Y-133500000D03*
X146460000Y-133000000D03*
X151540000Y-133000000D03*
X151540000Y-133500000D03*
D28*
X143920000Y-129000000D03*
X154080000Y-129000000D03*
D29*
X143780000Y-124800000D03*
X154220000Y-124800000D03*
D23*
X125205324Y-133263871D02*
X124594676Y-132536129D01*
D24*
X130000000Y-129000000D03*
D25*
X135500000Y-129000000D03*
X124500000Y-129000000D03*
D23*
X135405324Y-132536129D02*
X134794676Y-133263871D01*
D15*
X130000000Y-134900000D03*
D26*
X127460000Y-134080000D03*
D27*
X134211742Y-131061222D02*
X133408258Y-132018778D01*
D26*
X132540000Y-134080000D03*
D27*
X126591742Y-132018778D02*
X125788258Y-131061222D01*
D26*
X127460000Y-133500000D03*
X127460000Y-133000000D03*
X132540000Y-133000000D03*
X132540000Y-133500000D03*
D28*
X124920000Y-129000000D03*
X135080000Y-129000000D03*
D29*
X124780000Y-124800000D03*
X135220000Y-124800000D03*
D23*
X106205324Y-133263871D02*
X105594676Y-132536129D01*
D24*
X111000000Y-129000000D03*
D25*
X116500000Y-129000000D03*
X105500000Y-129000000D03*
D23*
X116405324Y-132536129D02*
X115794676Y-133263871D01*
D15*
X111000000Y-134900000D03*
D26*
X108460000Y-134080000D03*
D27*
X115211742Y-131061222D02*
X114408258Y-132018778D01*
D26*
X113540000Y-134080000D03*
D27*
X107591742Y-132018778D02*
X106788258Y-131061222D01*
D26*
X108460000Y-133500000D03*
X108460000Y-133000000D03*
X113540000Y-133000000D03*
X113540000Y-133500000D03*
D28*
X105920000Y-129000000D03*
X116080000Y-129000000D03*
D29*
X105780000Y-124800000D03*
X116220000Y-124800000D03*
D23*
X87205324Y-133263871D02*
X86594676Y-132536129D01*
D24*
X92000000Y-129000000D03*
D25*
X97500000Y-129000000D03*
X86500000Y-129000000D03*
D23*
X97405324Y-132536129D02*
X96794676Y-133263871D01*
D15*
X92000000Y-134900000D03*
D26*
X89460000Y-134080000D03*
D27*
X96211742Y-131061222D02*
X95408258Y-132018778D01*
D26*
X94540000Y-134080000D03*
D27*
X88591742Y-132018778D02*
X87788258Y-131061222D01*
D26*
X89460000Y-133500000D03*
X89460000Y-133000000D03*
X94540000Y-133000000D03*
X94540000Y-133500000D03*
D28*
X86920000Y-129000000D03*
X97080000Y-129000000D03*
D29*
X86780000Y-124800000D03*
X97220000Y-124800000D03*
D23*
X201205324Y-114263871D02*
X200594676Y-113536129D01*
D24*
X206000000Y-110000000D03*
D25*
X211500000Y-110000000D03*
X200500000Y-110000000D03*
D23*
X211405324Y-113536129D02*
X210794676Y-114263871D01*
D15*
X206000000Y-115900000D03*
D26*
X203460000Y-115080000D03*
D27*
X210211742Y-112061222D02*
X209408258Y-113018778D01*
D26*
X208540000Y-115080000D03*
D27*
X202591742Y-113018778D02*
X201788258Y-112061222D01*
D26*
X203460000Y-114500000D03*
X203460000Y-114000000D03*
X208540000Y-114000000D03*
X208540000Y-114500000D03*
D28*
X200920000Y-110000000D03*
X211080000Y-110000000D03*
D29*
X200780000Y-105800000D03*
X211220000Y-105800000D03*
D23*
X182205324Y-114263871D02*
X181594676Y-113536129D01*
D24*
X187000000Y-110000000D03*
D25*
X192500000Y-110000000D03*
X181500000Y-110000000D03*
D23*
X192405324Y-113536129D02*
X191794676Y-114263871D01*
D15*
X187000000Y-115900000D03*
D26*
X184460000Y-115080000D03*
D27*
X191211742Y-112061222D02*
X190408258Y-113018778D01*
D26*
X189540000Y-115080000D03*
D27*
X183591742Y-113018778D02*
X182788258Y-112061222D01*
D26*
X184460000Y-114500000D03*
X184460000Y-114000000D03*
X189540000Y-114000000D03*
X189540000Y-114500000D03*
D28*
X181920000Y-110000000D03*
X192080000Y-110000000D03*
D29*
X181780000Y-105800000D03*
X192220000Y-105800000D03*
D23*
X163205324Y-114263871D02*
X162594676Y-113536129D01*
D24*
X168000000Y-110000000D03*
D25*
X173500000Y-110000000D03*
X162500000Y-110000000D03*
D23*
X173405324Y-113536129D02*
X172794676Y-114263871D01*
D15*
X168000000Y-115900000D03*
D26*
X165460000Y-115080000D03*
D27*
X172211742Y-112061222D02*
X171408258Y-113018778D01*
D26*
X170540000Y-115080000D03*
D27*
X164591742Y-113018778D02*
X163788258Y-112061222D01*
D26*
X165460000Y-114500000D03*
X165460000Y-114000000D03*
X170540000Y-114000000D03*
X170540000Y-114500000D03*
D28*
X162920000Y-110000000D03*
X173080000Y-110000000D03*
D29*
X162780000Y-105800000D03*
X173220000Y-105800000D03*
D23*
X144205324Y-114263871D02*
X143594676Y-113536129D01*
D24*
X149000000Y-110000000D03*
D25*
X154500000Y-110000000D03*
X143500000Y-110000000D03*
D23*
X154405324Y-113536129D02*
X153794676Y-114263871D01*
D15*
X149000000Y-115900000D03*
D26*
X146460000Y-115080000D03*
D27*
X153211742Y-112061222D02*
X152408258Y-113018778D01*
D26*
X151540000Y-115080000D03*
D27*
X145591742Y-113018778D02*
X144788258Y-112061222D01*
D26*
X146460000Y-114500000D03*
X146460000Y-114000000D03*
X151540000Y-114000000D03*
X151540000Y-114500000D03*
D28*
X143920000Y-110000000D03*
X154080000Y-110000000D03*
D29*
X143780000Y-105800000D03*
X154220000Y-105800000D03*
D23*
X125205324Y-114263871D02*
X124594676Y-113536129D01*
D24*
X130000000Y-110000000D03*
D25*
X135500000Y-110000000D03*
X124500000Y-110000000D03*
D23*
X135405324Y-113536129D02*
X134794676Y-114263871D01*
D15*
X130000000Y-115900000D03*
D26*
X127460000Y-115080000D03*
D27*
X134211742Y-112061222D02*
X133408258Y-113018778D01*
D26*
X132540000Y-115080000D03*
D27*
X126591742Y-113018778D02*
X125788258Y-112061222D01*
D26*
X127460000Y-114500000D03*
X127460000Y-114000000D03*
X132540000Y-114000000D03*
X132540000Y-114500000D03*
D28*
X124920000Y-110000000D03*
X135080000Y-110000000D03*
D29*
X124780000Y-105800000D03*
X135220000Y-105800000D03*
D23*
X106205324Y-114263871D02*
X105594676Y-113536129D01*
D24*
X111000000Y-110000000D03*
D25*
X116500000Y-110000000D03*
X105500000Y-110000000D03*
D23*
X116405324Y-113536129D02*
X115794676Y-114263871D01*
D15*
X111000000Y-115900000D03*
D26*
X108460000Y-115080000D03*
D27*
X115211742Y-112061222D02*
X114408258Y-113018778D01*
D26*
X113540000Y-115080000D03*
D27*
X107591742Y-113018778D02*
X106788258Y-112061222D01*
D26*
X108460000Y-114500000D03*
X108460000Y-114000000D03*
X113540000Y-114000000D03*
X113540000Y-114500000D03*
D28*
X105920000Y-110000000D03*
X116080000Y-110000000D03*
D29*
X105780000Y-105800000D03*
X116220000Y-105800000D03*
D23*
X87205324Y-114263871D02*
X86594676Y-113536129D01*
D24*
X92000000Y-110000000D03*
D25*
X97500000Y-110000000D03*
X86500000Y-110000000D03*
D23*
X97405324Y-113536129D02*
X96794676Y-114263871D01*
D15*
X92000000Y-115900000D03*
D26*
X89460000Y-115080000D03*
D27*
X96211742Y-112061222D02*
X95408258Y-113018778D01*
D26*
X94540000Y-115080000D03*
D27*
X88591742Y-113018778D02*
X87788258Y-112061222D01*
D26*
X89460000Y-114500000D03*
X89460000Y-114000000D03*
X94540000Y-114000000D03*
X94540000Y-114500000D03*
D28*
X86920000Y-110000000D03*
X97080000Y-110000000D03*
D29*
X86780000Y-105800000D03*
X97220000Y-105800000D03*
D23*
X182205324Y-95263871D02*
X181594676Y-94536129D01*
D24*
X187000000Y-91000000D03*
D25*
X192500000Y-91000000D03*
X181500000Y-91000000D03*
D23*
X192405324Y-94536129D02*
X191794676Y-95263871D01*
D15*
X187000000Y-96900000D03*
D26*
X184460000Y-96080000D03*
D27*
X191211742Y-93061222D02*
X190408258Y-94018778D01*
D26*
X189540000Y-96080000D03*
D27*
X183591742Y-94018778D02*
X182788258Y-93061222D01*
D26*
X184460000Y-95500000D03*
X184460000Y-95000000D03*
X189540000Y-95000000D03*
X189540000Y-95500000D03*
D28*
X181920000Y-91000000D03*
X192080000Y-91000000D03*
D29*
X181780000Y-86800000D03*
X192220000Y-86800000D03*
D23*
X163205324Y-95263871D02*
X162594676Y-94536129D01*
D24*
X168000000Y-91000000D03*
D25*
X173500000Y-91000000D03*
X162500000Y-91000000D03*
D23*
X173405324Y-94536129D02*
X172794676Y-95263871D01*
D15*
X168000000Y-96900000D03*
D26*
X165460000Y-96080000D03*
D27*
X172211742Y-93061222D02*
X171408258Y-94018778D01*
D26*
X170540000Y-96080000D03*
D27*
X164591742Y-94018778D02*
X163788258Y-93061222D01*
D26*
X165460000Y-95500000D03*
X165460000Y-95000000D03*
X170540000Y-95000000D03*
X170540000Y-95500000D03*
D28*
X162920000Y-91000000D03*
X173080000Y-91000000D03*
D29*
X162780000Y-86800000D03*
X173220000Y-86800000D03*
D23*
X144205324Y-95263871D02*
X143594676Y-94536129D01*
D24*
X149000000Y-91000000D03*
D25*
X154500000Y-91000000D03*
X143500000Y-91000000D03*
D23*
X154405324Y-94536129D02*
X153794676Y-95263871D01*
D15*
X149000000Y-96900000D03*
D26*
X146460000Y-96080000D03*
D27*
X153211742Y-93061222D02*
X152408258Y-94018778D01*
D26*
X151540000Y-96080000D03*
D27*
X145591742Y-94018778D02*
X144788258Y-93061222D01*
D26*
X146460000Y-95500000D03*
X146460000Y-95000000D03*
X151540000Y-95000000D03*
X151540000Y-95500000D03*
D28*
X143920000Y-91000000D03*
X154080000Y-91000000D03*
D29*
X143780000Y-86800000D03*
X154220000Y-86800000D03*
D23*
X125205324Y-95263871D02*
X124594676Y-94536129D01*
D24*
X130000000Y-91000000D03*
D25*
X135500000Y-91000000D03*
X124500000Y-91000000D03*
D23*
X135405324Y-94536129D02*
X134794676Y-95263871D01*
D15*
X130000000Y-96900000D03*
D26*
X127460000Y-96080000D03*
D27*
X134211742Y-93061222D02*
X133408258Y-94018778D01*
D26*
X132540000Y-96080000D03*
D27*
X126591742Y-94018778D02*
X125788258Y-93061222D01*
D26*
X127460000Y-95500000D03*
X127460000Y-95000000D03*
X132540000Y-95000000D03*
X132540000Y-95500000D03*
D28*
X124920000Y-91000000D03*
X135080000Y-91000000D03*
D29*
X124780000Y-86800000D03*
X135220000Y-86800000D03*
D23*
X106205324Y-95263871D02*
X105594676Y-94536129D01*
D24*
X111000000Y-91000000D03*
D25*
X116500000Y-91000000D03*
X105500000Y-91000000D03*
D23*
X116405324Y-94536129D02*
X115794676Y-95263871D01*
D15*
X111000000Y-96900000D03*
D26*
X108460000Y-96080000D03*
D27*
X115211742Y-93061222D02*
X114408258Y-94018778D01*
D26*
X113540000Y-96080000D03*
D27*
X107591742Y-94018778D02*
X106788258Y-93061222D01*
D26*
X108460000Y-95500000D03*
X108460000Y-95000000D03*
X113540000Y-95000000D03*
X113540000Y-95500000D03*
D28*
X105920000Y-91000000D03*
X116080000Y-91000000D03*
D29*
X105780000Y-86800000D03*
X116220000Y-86800000D03*
D23*
X87205324Y-95263871D02*
X86594676Y-94536129D01*
D24*
X92000000Y-91000000D03*
D25*
X97500000Y-91000000D03*
X86500000Y-91000000D03*
D23*
X97405324Y-94536129D02*
X96794676Y-95263871D01*
D15*
X92000000Y-96900000D03*
D26*
X89460000Y-96080000D03*
D27*
X96211742Y-93061222D02*
X95408258Y-94018778D01*
D26*
X94540000Y-96080000D03*
D27*
X88591742Y-94018778D02*
X87788258Y-93061222D01*
D26*
X89460000Y-95500000D03*
X89460000Y-95000000D03*
X94540000Y-95000000D03*
X94540000Y-95500000D03*
D28*
X86920000Y-91000000D03*
X97080000Y-91000000D03*
D29*
X86780000Y-86800000D03*
X97220000Y-86800000D03*
D23*
X182205324Y-76263871D02*
X181594676Y-75536129D01*
D24*
X187000000Y-72000000D03*
D25*
X192500000Y-72000000D03*
X181500000Y-72000000D03*
D23*
X192405324Y-75536129D02*
X191794676Y-76263871D01*
D15*
X187000000Y-77900000D03*
D26*
X184460000Y-77080000D03*
D27*
X191211742Y-74061222D02*
X190408258Y-75018778D01*
D26*
X189540000Y-77080000D03*
D27*
X183591742Y-75018778D02*
X182788258Y-74061222D01*
D26*
X184460000Y-76500000D03*
X184460000Y-76000000D03*
X189540000Y-76000000D03*
X189540000Y-76500000D03*
D28*
X181920000Y-72000000D03*
X192080000Y-72000000D03*
D29*
X181780000Y-67800000D03*
X192220000Y-67800000D03*
D23*
X163205324Y-76263871D02*
X162594676Y-75536129D01*
D24*
X168000000Y-72000000D03*
D25*
X173500000Y-72000000D03*
X162500000Y-72000000D03*
D23*
X173405324Y-75536129D02*
X172794676Y-76263871D01*
D15*
X168000000Y-77900000D03*
D26*
X165460000Y-77080000D03*
D27*
X172211742Y-74061222D02*
X171408258Y-75018778D01*
D26*
X170540000Y-77080000D03*
D27*
X164591742Y-75018778D02*
X163788258Y-74061222D01*
D26*
X165460000Y-76500000D03*
X165460000Y-76000000D03*
X170540000Y-76000000D03*
X170540000Y-76500000D03*
D28*
X162920000Y-72000000D03*
X173080000Y-72000000D03*
D29*
X162780000Y-67800000D03*
X173220000Y-67800000D03*
D23*
X144205324Y-76263871D02*
X143594676Y-75536129D01*
D24*
X149000000Y-72000000D03*
D25*
X154500000Y-72000000D03*
X143500000Y-72000000D03*
D23*
X154405324Y-75536129D02*
X153794676Y-76263871D01*
D15*
X149000000Y-77900000D03*
D26*
X146460000Y-77080000D03*
D27*
X153211742Y-74061222D02*
X152408258Y-75018778D01*
D26*
X151540000Y-77080000D03*
D27*
X145591742Y-75018778D02*
X144788258Y-74061222D01*
D26*
X146460000Y-76500000D03*
X146460000Y-76000000D03*
X151540000Y-76000000D03*
X151540000Y-76500000D03*
D28*
X143920000Y-72000000D03*
X154080000Y-72000000D03*
D29*
X143780000Y-67800000D03*
X154220000Y-67800000D03*
D23*
X106205324Y-76263871D02*
X105594676Y-75536129D01*
D24*
X111000000Y-72000000D03*
D25*
X116500000Y-72000000D03*
X105500000Y-72000000D03*
D23*
X116405324Y-75536129D02*
X115794676Y-76263871D01*
D15*
X111000000Y-77900000D03*
D26*
X108460000Y-77080000D03*
D27*
X115211742Y-74061222D02*
X114408258Y-75018778D01*
D26*
X113540000Y-77080000D03*
D27*
X107591742Y-75018778D02*
X106788258Y-74061222D01*
D26*
X108460000Y-76500000D03*
X108460000Y-76000000D03*
X113540000Y-76000000D03*
X113540000Y-76500000D03*
D28*
X105920000Y-72000000D03*
X116080000Y-72000000D03*
D29*
X105780000Y-67800000D03*
X116220000Y-67800000D03*
D23*
X87205324Y-76263871D02*
X86594676Y-75536129D01*
D24*
X92000000Y-72000000D03*
D25*
X97500000Y-72000000D03*
X86500000Y-72000000D03*
D23*
X97405324Y-75536129D02*
X96794676Y-76263871D01*
D15*
X92000000Y-77900000D03*
D26*
X89460000Y-77080000D03*
D27*
X96211742Y-74061222D02*
X95408258Y-75018778D01*
D26*
X94540000Y-77080000D03*
D27*
X88591742Y-75018778D02*
X87788258Y-74061222D01*
D26*
X89460000Y-76500000D03*
X89460000Y-76000000D03*
X94540000Y-76000000D03*
X94540000Y-76500000D03*
D28*
X86920000Y-72000000D03*
X97080000Y-72000000D03*
D29*
X86780000Y-67800000D03*
X97220000Y-67800000D03*
D23*
X163205324Y-57263871D02*
X162594676Y-56536129D01*
D24*
X168000000Y-53000000D03*
D25*
X173500000Y-53000000D03*
X162500000Y-53000000D03*
D23*
X173405324Y-56536129D02*
X172794676Y-57263871D01*
D15*
X168000000Y-58900000D03*
D26*
X165460000Y-58080000D03*
D27*
X172211742Y-55061222D02*
X171408258Y-56018778D01*
D26*
X170540000Y-58080000D03*
D27*
X164591742Y-56018778D02*
X163788258Y-55061222D01*
D26*
X165460000Y-57500000D03*
X165460000Y-57000000D03*
X170540000Y-57000000D03*
X170540000Y-57500000D03*
D28*
X162920000Y-53000000D03*
X173080000Y-53000000D03*
D29*
X162780000Y-48800000D03*
X173220000Y-48800000D03*
D23*
X125205324Y-57263871D02*
X124594676Y-56536129D01*
D24*
X130000000Y-53000000D03*
D25*
X135500000Y-53000000D03*
X124500000Y-53000000D03*
D23*
X135405324Y-56536129D02*
X134794676Y-57263871D01*
D15*
X130000000Y-58900000D03*
D26*
X127460000Y-58080000D03*
D27*
X134211742Y-55061222D02*
X133408258Y-56018778D01*
D26*
X132540000Y-58080000D03*
D27*
X126591742Y-56018778D02*
X125788258Y-55061222D01*
D26*
X127460000Y-57500000D03*
X127460000Y-57000000D03*
X132540000Y-57000000D03*
X132540000Y-57500000D03*
D28*
X124920000Y-53000000D03*
X135080000Y-53000000D03*
D29*
X124780000Y-48800000D03*
X135220000Y-48800000D03*
D23*
X106205324Y-57263871D02*
X105594676Y-56536129D01*
D24*
X111000000Y-53000000D03*
D25*
X116500000Y-53000000D03*
X105500000Y-53000000D03*
D23*
X116405324Y-56536129D02*
X115794676Y-57263871D01*
D15*
X111000000Y-58900000D03*
D26*
X108460000Y-58080000D03*
D27*
X115211742Y-55061222D02*
X114408258Y-56018778D01*
D26*
X113540000Y-58080000D03*
D27*
X107591742Y-56018778D02*
X106788258Y-55061222D01*
D26*
X108460000Y-57500000D03*
X108460000Y-57000000D03*
X113540000Y-57000000D03*
X113540000Y-57500000D03*
D28*
X105920000Y-53000000D03*
X116080000Y-53000000D03*
D29*
X105780000Y-48800000D03*
X116220000Y-48800000D03*
D23*
X182205324Y-57263871D02*
X181594676Y-56536129D01*
D24*
X187000000Y-53000000D03*
D25*
X192500000Y-53000000D03*
X181500000Y-53000000D03*
D23*
X192405324Y-56536129D02*
X191794676Y-57263871D01*
D15*
X187000000Y-58900000D03*
D26*
X184460000Y-58080000D03*
D27*
X191211742Y-55061222D02*
X190408258Y-56018778D01*
D26*
X189540000Y-58080000D03*
D27*
X183591742Y-56018778D02*
X182788258Y-55061222D01*
D26*
X184460000Y-57500000D03*
X184460000Y-57000000D03*
X189540000Y-57000000D03*
X189540000Y-57500000D03*
D28*
X181920000Y-53000000D03*
X192080000Y-53000000D03*
D29*
X181780000Y-48800000D03*
X192220000Y-48800000D03*
M02*
