M48
;DRILL file {KiCad 4.0.1-stable} date 2018/01/08 13:19:18
;FORMAT={-:-/ absolute / inch / decimal}
FMAT,2
INCH,TZ
T1C0.039
T2C0.047
T3C0.067
T4C0.075
T5C0.087
T6C0.157
T7C0.185
%
G90
G05
M72
T1
X3.4165Y-1.9213
X3.4165Y-2.6693
X3.4165Y-3.4173
X3.4165Y-4.1654
X3.4165Y-4.9134
X3.8276Y-1.9213
X3.8276Y-2.6693
X3.8276Y-3.4173
X3.8276Y-4.1654
X3.8276Y-4.9134
X4.1646Y-1.9213
X4.1646Y-2.6693
X4.1646Y-3.4173
X4.1646Y-4.1654
X4.1646Y-4.9134
X4.5756Y-1.9213
X4.5756Y-2.6693
X4.5756Y-3.4173
X4.5756Y-4.1654
X4.5756Y-4.9134
X4.9126Y-1.9213
X4.9126Y-2.6693
X4.9126Y-3.4173
X4.9126Y-4.1654
X4.9126Y-4.9134
X5.3236Y-1.9213
X5.3236Y-2.6693
X5.3236Y-3.4173
X5.3236Y-4.1654
X5.3236Y-4.9134
X5.6606Y-1.9213
X5.6606Y-2.6693
X5.6606Y-3.4173
X5.6606Y-4.1654
X5.6606Y-4.9134
X6.0717Y-1.9213
X6.0717Y-2.6693
X6.0717Y-3.4173
X6.0717Y-4.1654
X6.0717Y-4.9134
X6.4087Y-1.9213
X6.4087Y-2.6693
X6.4087Y-3.4173
X6.4087Y-4.1654
X6.4087Y-4.9134
X6.8197Y-1.9213
X6.8197Y-2.6693
X6.8197Y-3.4173
X6.8197Y-4.1654
X6.8197Y-4.9134
X7.1567Y-1.9213
X7.1567Y-2.6693
X7.1567Y-3.4173
X7.1567Y-4.1654
X7.1567Y-4.9134
X7.5677Y-1.9213
X7.5677Y-2.6693
X7.5677Y-3.4173
X7.5677Y-4.1654
X7.5677Y-4.9134
X7.9047Y-4.1654
X7.9047Y-4.9134
X8.3157Y-4.1654
X8.3157Y-4.9134
T2
X8.1299Y-3.3634
X8.1299Y-3.4323
X8.4055Y-3.3634
X8.4055Y-3.4323
T3
X3.422Y-2.0866
X3.422Y-2.8346
X3.422Y-3.5827
X3.422Y-4.3307
X3.422Y-5.0787
X3.822Y-2.0866
X3.822Y-2.8346
X3.822Y-3.5827
X3.822Y-4.3307
X3.822Y-5.0787
X4.1701Y-2.0866
X4.1701Y-2.8346
X4.1701Y-3.5827
X4.1701Y-4.3307
X4.1701Y-5.0787
X4.5701Y-2.0866
X4.5701Y-2.8346
X4.5701Y-3.5827
X4.5701Y-4.3307
X4.5701Y-5.0787
X4.9181Y-2.0866
X4.9181Y-2.8346
X4.9181Y-3.5827
X4.9181Y-4.3307
X4.9181Y-5.0787
X5.3181Y-2.0866
X5.3181Y-2.8346
X5.3181Y-3.5827
X5.3181Y-4.3307
X5.3181Y-5.0787
X5.6661Y-2.0866
X5.6661Y-2.8346
X5.6661Y-3.5827
X5.6661Y-4.3307
X5.6661Y-5.0787
X6.0661Y-2.0866
X6.0661Y-2.8346
X6.0661Y-3.5827
X6.0661Y-4.3307
X6.0661Y-5.0787
X6.4142Y-2.0866
X6.4142Y-2.8346
X6.4142Y-3.5827
X6.4142Y-4.3307
X6.4142Y-5.0787
X6.8142Y-2.0866
X6.8142Y-2.8346
X6.8142Y-3.5827
X6.8142Y-4.3307
X6.8142Y-5.0787
X7.1622Y-2.0866
X7.1622Y-2.8346
X7.1622Y-3.5827
X7.1622Y-4.3307
X7.1622Y-5.0787
X7.5622Y-2.0866
X7.5622Y-2.8346
X7.5622Y-3.5827
X7.5622Y-4.3307
X7.5622Y-5.0787
X7.9102Y-4.3307
X7.9102Y-5.0787
X8.3102Y-4.3307
X8.3102Y-5.0787
T4
X3.4055Y-2.0866
X3.4055Y-2.8346
X3.4055Y-3.5827
X3.4055Y-4.3307
X3.4055Y-5.0787
X3.8386Y-2.0866
X3.8386Y-2.8346
X3.8386Y-3.5827
X3.8386Y-4.3307
X3.8386Y-5.0787
X4.1535Y-2.0866
X4.1535Y-2.8346
X4.1535Y-3.5827
X4.1535Y-4.3307
X4.1535Y-5.0787
X4.5866Y-2.0866
X4.5866Y-2.8346
X4.5866Y-3.5827
X4.5866Y-4.3307
X4.5866Y-5.0787
X4.9016Y-2.0866
X4.9016Y-2.8346
X4.9016Y-3.5827
X4.9016Y-4.3307
X4.9016Y-5.0787
X5.3346Y-2.0866
X5.3346Y-2.8346
X5.3346Y-3.5827
X5.3346Y-4.3307
X5.3346Y-5.0787
X5.6496Y-2.0866
X5.6496Y-2.8346
X5.6496Y-3.5827
X5.6496Y-4.3307
X5.6496Y-5.0787
X6.0827Y-2.0866
X6.0827Y-2.8346
X6.0827Y-3.5827
X6.0827Y-4.3307
X6.0827Y-5.0787
X6.3976Y-2.0866
X6.3976Y-2.8346
X6.3976Y-3.5827
X6.3976Y-4.3307
X6.3976Y-5.0787
X6.8307Y-2.0866
X6.8307Y-2.8346
X6.8307Y-3.5827
X6.8307Y-4.3307
X6.8307Y-5.0787
X7.1457Y-2.0866
X7.1457Y-2.8346
X7.1457Y-3.5827
X7.1457Y-4.3307
X7.1457Y-5.0787
X7.5787Y-2.0866
X7.5787Y-2.8346
X7.5787Y-3.5827
X7.5787Y-4.3307
X7.5787Y-5.0787
X7.8937Y-4.3307
X7.8937Y-5.0787
X8.3268Y-4.3307
X8.3268Y-5.0787
T5
X7.8346Y-3.1693
X7.8346Y-3.8583
X7.8346Y-4.5965
X7.8346Y-5.3445
X8.376Y-3.1693
X8.376Y-3.8583
X8.376Y-4.5965
X8.376Y-5.3445
T6
X3.622Y-2.0866
X3.622Y-2.8346
X3.622Y-3.5827
X3.622Y-4.3307
X3.622Y-5.0787
X4.3701Y-2.0866
X4.3701Y-2.8346
X4.3701Y-3.5827
X4.3701Y-4.3307
X4.3701Y-5.0787
X5.1181Y-2.0866
X5.1181Y-2.8346
X5.1181Y-3.5827
X5.1181Y-4.3307
X5.1181Y-5.0787
X5.8661Y-2.0866
X5.8661Y-2.8346
X5.8661Y-3.5827
X5.8661Y-4.3307
X5.8661Y-5.0787
X6.6142Y-2.0866
X6.6142Y-2.8346
X6.6142Y-3.5827
X6.6142Y-4.3307
X6.6142Y-5.0787
X7.3622Y-2.0866
X7.3622Y-2.8346
X7.3622Y-3.5827
X7.3622Y-4.3307
X7.3622Y-5.0787
X8.1102Y-4.3307
X8.1102Y-5.0787
T7
X3.9961Y-2.4606
X3.9961Y-3.9567
X3.9961Y-4.7047
X4.7441Y-4.7047
X5.4921Y-2.4606
X5.4921Y-3.9567
X5.4921Y-4.7047
X6.2402Y-4.7047
X6.9882Y-2.4606
X6.9882Y-3.9567
X6.9882Y-4.7047
X7.7362Y-4.7047
T0
M30
